{"glyphs":{"0":{"ha":813,"x_min":-203,"x_max":1013,"o":"m 392 -231 l 408 450 q 493 653 411 593 q 715 714 575 714 l 983 714 q 1001 683 1013 714 l 939 531 q 896 499 928 499 l 710 499 q 665 489 674 499 q 657 443 657 479 l 667 -225 q 631 -257 667 -257 l 421 -257 q 392 -231 390 -257 m 444 996 q 585 1175 490 1111 q 793 1239 679 1239 q 881 1215 843 1239 q 941 1151 919 1190 q 966 1062 963 1111 q 950 964 969 1013 q 824 789 901 844 q 625 722 746 733 q 619 729 617 722 l 679 874 q 690 885 682 883 q 797 979 768 908 q 797 1050 814 1021 q 738 1079 779 1079 q 655 1050 696 1079 q 597 979 614 1021 q 625 885 568 908 q 631 874 633 882 l 571 729 q 560 722 568 722 q 436 815 468 735 q 444 996 404 896 m -175 -225 l 319 364 q 344 382 336 382 q 353 364 354 382 l 344 94 q 325 46 344 71 l 121 -231 q 71 -257 101 -257 l -167 -257 q -175 -225 -203 -257 m 58 524 l 125 689 q 158 713 135 713 l 417 713 q 431 689 440 713 l 364 524 q 331 500 353 500 l 72 500 q 58 524 47 500 z "},"1":{"ha":393,"x_min":24,"x_max":403,"o":"m 24 360 l 132 360 l 132 632 l 293 632 l 293 522 l 403 522 l 403 360 l 132 360 l 132 249 l 24 360 m 232 556 l 232 597 l 194 597 l 194 556 l 232 556 z "},"2":{"ha":813,"x_min":-203,"x_max":1013,"o":"m 392 -231 l 408 450 q 493 653 411 593 q 715 714 575 714 l 983 714 q 1001 683 1013 714 l 939 531 q 896 499 928 499 l 710 499 q 665 489 674 499 q 657 443 657 479 l 667 -225 q 631 -257 667 -257 l 421 -257 q 392 -231 390 -257 m 444 996 q 585 1175 490 1111 q 793 1239 679 1239 q 881 1215 843 1239 q 941 1151 919 1190 q 966 1062 963 1111 q 950 964 969 1013 q 824 789 901 844 q 625 722 746 733 q 619 729 617 722 l 679 874 q 690 885 682 883 q 797 979 768 908 q 797 1050 814 1021 q 738 1079 779 1079 q 655 1050 696 1079 q 597 979 614 1021 q 625 885 568 908 q 631 874 633 882 l 571 729 q 560 722 568 722 q 436 815 468 735 q 444 996 404 896 m -175 -225 l 319 364 q 344 382 336 382 q 353 364 354 382 l 344 94 q 325 46 344 71 l 121 -231 q 71 -257 101 -257 l -167 -257 q -175 -225 -203 -257 m 58 524 l 125 689 q 158 713 135 713 l 417 713 q 431 689 440 713 l 364 524 q 331 500 353 500 l 72 500 q 58 524 47 500 z "},"3":{"ha":393,"x_min":24,"x_max":403,"o":"m 24 360 l 132 360 l 132 632 l 293 632 l 293 522 l 403 522 l 403 360 l 132 360 l 132 249 l 24 360 m 232 556 l 232 597 l 194 597 l 194 556 l 232 556 z "},"4":{"ha":813,"x_min":-203,"x_max":1013,"o":"m 392 -231 l 408 450 q 493 653 411 593 q 715 714 575 714 l 983 714 q 1001 683 1013 714 l 939 531 q 896 499 928 499 l 710 499 q 665 489 674 499 q 657 443 657 479 l 667 -225 q 631 -257 667 -257 l 421 -257 q 392 -231 390 -257 m 444 996 q 585 1175 490 1111 q 793 1239 679 1239 q 881 1215 843 1239 q 941 1151 919 1190 q 966 1062 963 1111 q 950 964 969 1013 q 824 789 901 844 q 625 722 746 733 q 619 729 617 722 l 679 874 q 690 885 682 883 q 797 979 768 908 q 797 1050 814 1021 q 738 1079 779 1079 q 655 1050 696 1079 q 597 979 614 1021 q 625 885 568 908 q 631 874 633 882 l 571 729 q 560 722 568 722 q 436 815 468 735 q 444 996 404 896 m -175 -225 l 319 364 q 344 382 336 382 q 353 364 354 382 l 344 94 q 325 46 344 71 l 121 -231 q 71 -257 101 -257 l -167 -257 q -175 -225 -203 -257 m 58 524 l 125 689 q 158 713 135 713 l 417 713 q 431 689 440 713 l 364 524 q 331 500 353 500 l 72 500 q 58 524 47 500 z "},"5":{"ha":393,"x_min":24,"x_max":403,"o":"m 24 360 l 132 360 l 132 632 l 293 632 l 293 522 l 403 522 l 403 360 l 132 360 l 132 249 l 24 360 m 232 556 l 232 597 l 194 597 l 194 556 l 232 556 z "},"6":{"ha":813,"x_min":-203,"x_max":1013,"o":"m 392 -231 l 408 450 q 493 653 411 593 q 715 714 575 714 l 983 714 q 1001 683 1013 714 l 939 531 q 896 499 928 499 l 710 499 q 665 489 674 499 q 657 443 657 479 l 667 -225 q 631 -257 667 -257 l 421 -257 q 392 -231 390 -257 m 444 996 q 585 1175 490 1111 q 793 1239 679 1239 q 881 1215 843 1239 q 941 1151 919 1190 q 966 1062 963 1111 q 950 964 969 1013 q 824 789 901 844 q 625 722 746 733 q 619 729 617 722 l 679 874 q 690 885 682 883 q 797 979 768 908 q 797 1050 814 1021 q 738 1079 779 1079 q 655 1050 696 1079 q 597 979 614 1021 q 625 885 568 908 q 631 874 633 882 l 571 729 q 560 722 568 722 q 436 815 468 735 q 444 996 404 896 m -175 -225 l 319 364 q 344 382 336 382 q 353 364 354 382 l 344 94 q 325 46 344 71 l 121 -231 q 71 -257 101 -257 l -167 -257 q -175 -225 -203 -257 m 58 524 l 125 689 q 158 713 135 713 l 417 713 q 431 689 440 713 l 364 524 q 331 500 353 500 l 72 500 q 58 524 47 500 z "},"7":{"ha":393,"x_min":24,"x_max":403,"o":"m 24 360 l 132 360 l 132 632 l 293 632 l 293 522 l 403 522 l 403 360 l 132 360 l 132 249 l 24 360 m 232 556 l 232 597 l 194 597 l 194 556 l 232 556 z "},"8":{"ha":813,"x_min":-203,"x_max":1013,"o":"m 392 -231 l 408 450 q 493 653 411 593 q 715 714 575 714 l 983 714 q 1001 683 1013 714 l 939 531 q 896 499 928 499 l 710 499 q 665 489 674 499 q 657 443 657 479 l 667 -225 q 631 -257 667 -257 l 421 -257 q 392 -231 390 -257 m 444 996 q 585 1175 490 1111 q 793 1239 679 1239 q 881 1215 843 1239 q 941 1151 919 1190 q 966 1062 963 1111 q 950 964 969 1013 q 824 789 901 844 q 625 722 746 733 q 619 729 617 722 l 679 874 q 690 885 682 883 q 797 979 768 908 q 797 1050 814 1021 q 738 1079 779 1079 q 655 1050 696 1079 q 597 979 614 1021 q 625 885 568 908 q 631 874 633 882 l 571 729 q 560 722 568 722 q 436 815 468 735 q 444 996 404 896 m -175 -225 l 319 364 q 344 382 336 382 q 353 364 354 382 l 344 94 q 325 46 344 71 l 121 -231 q 71 -257 101 -257 l -167 -257 q -175 -225 -203 -257 m 58 524 l 125 689 q 158 713 135 713 l 417 713 q 431 689 440 713 l 364 524 q 331 500 353 500 l 72 500 q 58 524 47 500 z "},"9":{"ha":393,"x_min":24,"x_max":403,"o":"m 24 360 l 132 360 l 132 632 l 293 632 l 293 522 l 403 522 l 403 360 l 132 360 l 132 249 l 24 360 m 232 556 l 232 597 l 194 597 l 194 556 l 232 556 z "},"\u0000":{"ha":0,"x_min":0,"x_max":0,"o":""},"\r":{"ha":0,"x_min":0,"x_max":0,"o":""}," ":{"ha":393,"x_min":0,"x_max":0,"o":""},"!":{"ha":457,"x_min":132,"x_max":778,"o":"m 497 976 q 529 1000 504 1000 l 754 1000 q 767 976 778 1000 l 504 381 q 469 357 492 357 l 299 357 q 283 381 274 357 l 497 976 m 217 208 q 250 232 226 232 l 418 232 q 432 208 442 232 l 357 24 q 324 0 347 0 l 156 0 q 142 24 132 0 l 217 208 z "},"\"":{"ha":579,"x_min":321,"x_max":983,"o":"m 647 739 l 775 1056 q 808 1079 785 1079 l 960 1079 q 974 1056 983 1079 l 846 739 q 813 715 836 715 l 661 715 q 647 739 638 715 m 331 739 l 458 1056 q 492 1079 468 1079 l 643 1079 q 657 1056 667 1079 l 529 739 q 496 715 519 715 l 344 715 q 331 739 321 715 z "},"#":{"ha":938,"x_min":21,"x_max":917,"o":"m 25 168 l 47 297 q 75 321 51 321 l 196 321 l 229 514 l 110 514 q 90 538 86 514 l 113 667 q 140 690 117 690 l 261 690 l 282 810 q 310 833 286 833 l 457 833 q 476 810 481 833 l 456 690 l 589 690 l 610 810 q 638 833 614 833 l 785 833 q 804 810 808 833 l 783 690 l 893 690 q 913 667 917 690 l 890 538 q 863 514 886 514 l 751 514 l 718 321 l 828 321 q 847 297 851 321 l 825 168 q 797 144 821 144 l 686 144 l 665 24 q 638 0 661 0 l 490 0 q 471 24 467 0 l 492 144 l 358 144 l 338 24 q 310 0 333 0 l 163 0 q 143 24 139 0 l 164 144 l 44 144 q 25 168 21 144 m 524 321 l 557 514 l 424 514 l 390 321 l 524 321 z "},"&":{"ha":1007,"x_min":125,"x_max":1072,"o":"m 510 275 q 539 285 525 285 q 560 269 556 285 l 561 271 l 614 147 q 613 120 617 132 q 588 94 608 108 l 493 36 q 332 -14 410 -14 q 197 61 231 -14 l 158 151 q 163 313 125 229 q 307 457 200 396 l 486 558 q 483 753 442 667 q 669 928 524 839 l 726 963 q 882 1011 807 1011 q 1018 936 979 1011 l 1042 890 q 1039 743 1072 826 q 914 603 1007 665 l 901 594 q 875 583 886 583 q 857 596 864 583 l 799 713 q 798 734 796 726 q 817 756 800 742 l 822 760 q 821 768 824 763 l 813 790 q 807 794 811 794 q 800 792 806 794 l 750 761 q 744 749 740 754 l 851 496 q 858 492 854 492 q 864 494 858 492 l 957 553 q 986 564 974 564 q 1007 547 1001 564 l 1008 549 l 1060 428 q 1060 401 1065 417 q 1033 375 1054 385 l 1035 375 l 940 317 q 935 304 931 310 l 993 172 q 993 146 999 158 q 967 119 989 133 l 774 1 q 746 -10 756 -10 q 725 7 732 -10 l 725 6 l 564 379 l 453 311 q 446 299 442 304 l 465 256 q 472 251 468 251 q 478 254 472 251 l 510 275 z "},"'":{"ha":263,"x_min":321,"x_max":667,"o":"m 643 1079 q 657 1056 667 1079 l 529 739 q 496 715 519 715 l 344 715 q 331 739 321 715 l 458 1056 q 492 1079 468 1079 l 643 1079 z "},"(":{"ha":422,"x_min":-7,"x_max":936,"o":"m 347 -219 q 296 -257 333 -257 l 174 -257 q 33 -189 74 -257 q 33 -22 -7 -121 l 444 999 q 572 1182 497 1129 q 776 1235 647 1235 l 899 1235 q 919 1197 936 1235 l 843 1008 q 793 972 829 972 l 715 972 q 710 968 710 972 l 322 10 q 325 6 318 6 l 403 6 q 424 -31 438 6 l 347 -219 z "},"*":{"ha":650,"x_min":283,"x_max":939,"o":"m 726 483 q 707 471 714 471 q 697 481 701 471 l 615 685 l 610 439 q 585 417 610 417 l 401 417 q 396 439 378 417 l 588 685 l 338 482 q 321 472 326 472 q 313 485 315 472 l 285 643 q 307 668 283 664 l 576 708 l 343 751 q 342 776 318 756 l 497 933 q 515 946 510 946 q 525 936 521 946 l 608 731 l 613 978 q 638 1000 613 1000 l 821 1000 q 826 978 844 1000 l 631 729 l 882 935 q 899 944 893 944 q 907 932 906 944 l 935 774 q 913 749 939 753 l 632 708 l 881 665 q 881 640 904 661 l 726 483 z "},"+":{"ha":968,"x_min":233,"x_max":1142,"o":"m 238 432 l 300 585 q 344 615 313 615 l 621 615 l 732 892 q 776 922 744 922 l 929 922 q 958 901 958 922 q 954 885 958 893 l 844 615 l 1113 615 q 1142 594 1142 615 q 1138 578 1142 586 l 1075 424 q 1031 394 1063 394 l 756 394 l 643 115 q 599 86 631 86 l 446 86 q 417 106 417 86 q 421 124 417 114 l 532 394 l 263 394 q 233 414 233 394 q 238 432 233 422 z "},",":{"ha":315,"x_min":-119,"x_max":292,"o":"m 39 -206 q -1 -228 21 -228 l -96 -228 q -107 -204 -119 -228 l 63 104 q 99 128 75 128 l 267 128 q 274 106 292 128 l 39 -206 z "},"-":{"ha":315,"x_min":103,"x_max":494,"o":"m 179 440 q 213 464 189 464 l 471 464 q 485 440 494 464 l 418 275 q 385 251 408 251 l 126 251 q 113 275 103 251 l 179 440 z "},".":{"ha":364,"x_min":51,"x_max":361,"o":"m 136 208 q 168 232 146 232 l 336 232 q 351 208 361 232 l 276 24 q 243 0 267 0 l 75 0 q 61 24 51 0 l 136 208 z "},"/":{"ha":454,"x_min":-14,"x_max":738,"o":"m 13 -257 q -4 -235 -14 -257 l 488 978 q 518 1000 497 1000 l 711 1000 q 728 978 738 1000 l 236 -235 q 206 -257 226 -257 l 13 -257 z "},":":{"ha":263,"x_min":24,"x_max":489,"o":"m 108 208 q 140 232 118 232 l 308 232 q 324 208 333 232 l 249 24 q 215 0 239 0 l 47 0 q 33 24 24 0 l 108 208 m 264 593 q 296 617 274 617 l 464 617 q 479 593 489 617 l 404 408 q 371 385 394 385 l 203 385 q 189 408 179 385 l 264 593 z "},";":{"ha":315,"x_min":-119,"x_max":489,"o":"m 264 593 q 296 617 274 617 l 464 617 q 479 593 489 617 l 404 408 q 371 385 394 385 l 203 385 q 189 408 179 385 l 264 593 m 39 -206 q -1 -228 22 -228 l -96 -228 q -107 -204 -119 -228 l 63 104 q 99 128 75 128 l 267 128 q 274 106 292 128 l 39 -206 z "},"<":{"ha":974,"x_min":360,"x_max":1015,"o":"m 1007 658 q 993 625 1015 642 l 635 357 l 772 88 q 760 54 783 72 l 604 -54 q 585 -64 593 -64 q 571 -54 576 -64 l 371 339 q 385 374 360 354 l 903 765 q 924 776 918 776 q 936 767 932 776 l 1007 658 z "},"=":{"ha":965,"x_min":168,"x_max":1200,"o":"m 1010 267 q 965 236 997 236 l 197 236 q 168 257 168 236 q 172 275 168 265 l 235 428 q 279 458 247 458 l 1047 458 q 1076 438 1076 458 q 1072 419 1076 431 l 1010 267 m 1133 572 q 1089 542 1121 542 l 321 542 q 292 563 292 542 q 296 581 292 571 l 358 733 q 403 764 371 764 l 1171 764 q 1200 743 1200 764 q 1196 725 1200 736 l 1133 572 z "},"?":{"ha":854,"x_min":78,"x_max":1094,"o":"m 451 963 q 503 1000 468 1000 l 914 1000 q 1053 932 1013 1000 q 1054 765 1094 864 l 994 618 q 866 437 943 492 q 664 382 789 382 l 514 382 l 493 329 q 440 294 478 294 l 249 294 q 224 329 210 294 l 332 597 q 379 629 344 629 l 703 629 q 708 633 707 629 l 756 749 q 753 753 757 753 l 403 753 q 382 789 365 753 l 451 963 m 161 203 q 213 239 175 239 l 431 239 q 453 203 467 239 l 386 38 q 333 0 369 0 l 115 0 q 94 38 78 0 l 161 203 z "},"@":{"ha":1624,"x_min":19,"x_max":1904,"o":"m 822 260 q 790 239 799 260 l 788 232 q 804 210 781 210 q 841 213 813 210 q 901 219 869 215 l 908 219 q 915 192 926 219 l 858 50 q 814 14 846 21 q 704 -4 751 3 q 629 -11 657 -11 q 506 48 542 -11 q 504 193 469 107 l 535 269 q 644 424 579 378 q 821 471 710 471 l 1078 471 q 1083 475 1082 471 l 1088 486 q 1071 500 1093 500 l 750 500 q 732 531 719 500 l 796 689 q 839 719 808 719 l 1246 719 q 1367 660 1331 719 q 1368 515 1403 600 l 1250 224 q 1253 219 1249 219 l 1386 219 q 1401 231 1397 219 l 1639 819 q 1633 831 1644 831 l 650 831 q 633 819 639 831 l 281 -54 q 288 -65 278 -65 l 858 -65 q 876 -96 889 -65 l 822 -229 q 781 -258 811 -258 l 197 -258 q 60 -191 100 -258 q 58 -28 19 -124 l 393 801 q 519 981 444 928 q 719 1033 593 1033 l 1728 1033 q 1865 966 1825 1033 q 1864 801 1904 899 l 1633 232 q 1509 53 1583 107 q 1310 0 1435 0 l 922 0 q 904 31 892 0 l 994 256 q 993 260 997 260 l 822 260 z "},"A":{"ha":1022,"x_min":-51,"x_max":1074,"o":"m -18 40 l 749 969 q 806 1000 774 1000 l 1025 1000 q 1057 969 1057 1000 l 1074 40 q 1031 0 1074 0 l 811 0 q 779 31 778 0 l 779 156 q 765 168 779 168 l 532 168 q 521 208 488 168 l 643 363 q 669 387 658 382 q 701 392 679 392 l 767 392 q 781 404 781 392 l 779 617 l 313 31 q 287 6 297 11 q 256 0 276 0 l -8 0 q -18 40 -51 0 z "},"B":{"ha":1068,"x_min":82,"x_max":1317,"o":"m 99 36 l 472 963 q 522 999 486 999 l 1132 999 q 1274 937 1231 999 q 1272 764 1317 875 l 1242 688 q 1203 617 1229 656 q 1142 551 1178 579 q 1174 468 1168 521 q 1151 344 1179 415 l 1107 235 q 981 52 1054 104 q 778 0 908 0 l 478 0 q 457 36 440 0 l 532 225 q 583 263 549 263 l 776 263 q 851 317 831 263 l 861 342 q 863 381 871 364 q 832 397 854 397 l 626 397 q 611 421 601 397 l 679 589 q 713 613 689 613 l 871 613 q 947 668 922 613 l 954 683 q 954 722 963 706 q 922 739 946 739 l 689 739 q 669 726 675 739 l 390 36 q 338 0 376 0 l 119 0 q 99 36 82 0 z "},"C":{"ha":933,"x_min":128,"x_max":1304,"o":"m 971 263 q 993 226 1007 263 l 917 38 q 865 0 900 0 l 308 0 q 169 68 210 0 q 168 235 128 136 l 383 765 q 509 948 436 896 q 713 1000 582 1000 l 1269 1000 q 1290 963 1304 1000 l 1214 774 q 1164 738 1200 738 l 696 738 q 676 722 683 738 l 496 276 q 504 263 492 263 l 971 263 z "},"D":{"ha":1046,"x_min":82,"x_max":1322,"o":"m 99 38 l 472 963 q 524 1000 489 1000 l 1142 1000 q 1281 932 1240 1000 q 1282 765 1322 864 l 1067 235 q 941 52 1014 104 q 738 0 868 0 l 474 0 q 453 38 436 0 l 529 226 q 579 263 543 263 l 774 263 q 793 276 789 263 l 975 724 q 967 738 979 738 l 685 738 q 665 724 669 738 l 388 38 q 336 0 371 0 l 119 0 q 99 38 82 0 z "},"E":{"ha":958,"x_min":82,"x_max":1326,"o":"m 669 575 q 721 613 686 613 l 1071 613 q 1092 575 1108 613 l 1032 425 q 981 388 1015 388 l 631 388 q 610 425 593 388 l 669 575 m 990 263 q 1013 226 1026 263 l 936 38 q 885 0 919 0 l 119 0 q 99 38 82 0 l 472 963 q 524 1000 489 1000 l 1289 1000 q 1310 963 1326 1000 l 1233 774 q 1183 738 1219 738 l 685 738 q 665 724 669 738 l 483 276 q 492 263 479 263 l 990 263 z "},"F":{"ha":925,"x_min":82,"x_max":1290,"o":"m 671 575 q 722 611 686 611 l 1033 611 q 1054 575 1069 611 l 993 424 q 943 388 979 388 l 632 388 q 610 424 596 388 l 671 575 m 390 36 q 338 0 376 0 l 119 0 q 99 36 82 0 l 472 963 q 522 999 486 999 l 1254 999 q 1276 963 1290 999 l 1200 774 q 1150 738 1186 738 l 685 738 q 665 725 671 738 l 390 36 z "},"G":{"ha":1069,"x_min":128,"x_max":1250,"o":"m 832 315 q 881 350 844 350 l 1103 350 q 1124 315 1136 350 l 1090 235 q 965 52 1038 104 q 761 0 892 0 l 308 0 q 169 68 210 0 q 168 235 128 136 l 383 765 q 509 948 436 896 q 713 1000 582 1000 l 1200 1000 q 1221 963 1235 1000 l 1144 774 q 1094 738 1131 738 l 678 738 q 658 724 663 738 l 476 276 q 485 263 472 263 l 796 263 q 815 276 811 263 l 832 315 m 728 406 q 707 442 690 406 l 767 592 q 818 628 782 628 l 1214 628 q 1235 592 1250 628 l 1174 440 q 1125 406 1158 406 l 728 406 z "},"H":{"ha":1114,"x_min":82,"x_max":1436,"o":"m 607 414 l 683 603 q 735 639 697 639 l 983 639 q 1003 653 997 639 l 1128 963 q 1179 1000 1144 1000 l 1397 1000 q 1419 963 1436 1000 l 1046 38 q 993 0 1029 0 l 775 0 q 754 38 738 0 l 888 364 q 879 378 893 378 l 629 378 q 607 414 593 378 m 99 38 l 472 963 q 524 1000 489 1000 l 743 1000 q 764 963 781 1000 l 390 38 q 339 0 374 0 l 119 0 q 99 38 82 0 z "},"I":{"ha":458,"x_min":82,"x_max":781,"o":"m 472 963 q 524 1000 489 1000 l 743 1000 q 764 963 781 1000 l 390 38 q 339 0 374 0 l 119 0 q 99 38 82 0 l 472 963 z "},"J":{"ha":888,"x_min":63,"x_max":1214,"o":"m 906 963 q 957 1000 922 1000 l 1175 1000 q 1197 963 1214 1000 l 903 235 q 776 52 850 104 q 572 0 703 0 l 244 0 q 102 66 142 0 q 104 235 63 132 l 204 476 q 254 513 218 513 l 468 513 q 490 476 504 513 l 408 276 q 417 263 404 263 l 608 263 q 628 276 624 263 l 906 963 z "},"K":{"ha":908,"x_min":82,"x_max":1349,"o":"m 99 38 l 472 963 q 524 1000 489 1000 l 743 1000 q 764 963 781 1000 l 683 764 l 971 979 q 1028 1000 999 1000 l 1296 1000 q 1297 961 1349 1000 l 549 407 q 531 383 535 397 l 390 38 q 339 0 374 0 l 119 0 q 99 38 82 0 m 611 388 l 824 546 q 850 557 839 557 q 869 539 865 557 l 957 40 q 917 0 964 0 l 660 0 q 625 28 629 0 l 581 335 q 611 388 576 361 z "},"L":{"ha":813,"x_min":82,"x_max":936,"o":"m 899 263 q 922 226 936 263 l 846 38 q 793 0 829 0 l 119 0 q 99 38 82 0 l 472 963 q 524 1000 489 1000 l 743 1000 q 764 963 781 1000 l 486 276 q 494 263 482 263 l 899 263 z "},"M":{"ha":1242,"x_min":85,"x_max":1563,"o":"m 99 36 l 474 964 q 524 1000 488 1000 l 722 1000 q 757 974 753 1000 l 808 499 q 813 490 811 490 q 819 494 815 490 l 1253 974 q 1307 1000 1278 1000 l 1526 1000 q 1549 964 1563 1000 l 1174 36 q 1122 0 1160 0 l 904 0 q 882 36 868 0 l 1007 347 l 799 132 q 744 106 774 106 l 582 106 q 546 132 550 106 l 515 346 l 390 36 q 338 0 376 0 l 119 0 q 99 36 85 0 z "},"N":{"ha":1111,"x_min":82,"x_max":1433,"o":"m 99 38 l 472 963 q 524 1000 489 1000 l 743 1000 q 781 975 772 1000 l 936 514 q 939 508 936 508 q 944 517 943 508 l 1125 963 q 1176 1000 1142 1000 l 1394 1000 q 1417 963 1433 1000 l 1043 38 q 990 0 1026 0 l 772 0 q 735 25 743 0 l 581 488 q 576 493 579 493 q 571 485 575 493 l 390 38 q 339 0 374 0 l 119 0 q 99 38 82 0 z "},"O":{"ha":1089,"x_min":128,"x_max":1365,"o":"m 168 235 l 383 765 q 509 948 436 896 q 713 1000 582 1000 l 1183 1000 q 1324 932 1283 1000 q 1325 765 1365 864 l 1110 235 q 983 52 1057 104 q 779 0 910 0 l 614 0 q 593 38 576 0 l 669 226 q 719 263 683 263 l 815 263 q 835 276 831 263 l 1015 724 q 1007 738 1019 738 l 678 738 q 658 724 663 738 l 478 276 q 486 263 474 263 l 582 263 q 604 226 618 263 l 528 38 q 476 0 511 0 l 308 0 q 169 68 210 0 q 168 235 128 136 z "},"P":{"ha":1006,"x_min":82,"x_max":1344,"o":"m 390 36 q 338 0 376 0 l 119 0 q 99 36 82 0 l 472 963 q 522 999 486 999 l 1164 999 q 1303 931 1263 999 q 1304 764 1344 863 l 1203 513 q 1077 330 1150 382 q 874 278 1004 278 l 588 278 q 567 315 550 278 l 638 493 q 656 523 647 517 q 689 529 665 529 l 903 529 q 922 542 917 529 l 996 725 q 988 738 1001 738 l 685 738 q 665 725 671 738 l 390 36 z "},"R":{"ha":1081,"x_min":82,"x_max":1357,"o":"m 99 38 l 472 963 q 524 1000 489 1000 l 1176 1000 q 1316 931 1275 1000 q 1317 765 1357 863 l 1193 471 q 1099 353 1157 386 q 929 319 1042 319 l 1036 39 q 1001 0 1053 0 l 771 0 q 728 24 736 0 l 618 319 l 604 319 q 582 356 568 319 l 654 533 q 706 571 671 571 l 932 571 q 951 585 946 571 l 1007 724 q 999 738 1011 738 l 688 738 q 668 724 672 738 l 390 38 q 339 0 374 0 l 119 0 q 99 38 82 0 z "},"S":{"ha":1060,"x_min":126,"x_max":1322,"o":"m 450 317 q 464 293 475 317 l 451 260 q 461 242 443 242 l 793 242 q 819 260 813 242 l 864 371 q 853 389 872 389 l 458 389 q 324 455 363 389 q 322 617 285 521 l 386 772 q 509 948 436 896 q 706 1000 582 1000 l 1149 1000 q 1283 934 1244 1000 q 1285 772 1322 868 l 1258 707 q 1225 683 1247 683 l 1000 683 q 986 707 975 683 l 999 740 q 989 758 1007 758 l 671 758 q 644 740 651 758 l 600 629 q 611 611 592 611 l 1006 611 q 1140 545 1101 611 q 1142 383 1179 479 l 1078 228 q 953 52 1026 104 q 758 0 881 0 l 301 0 q 166 66 206 0 q 165 228 126 132 l 192 293 q 225 317 203 317 l 450 317 z "},"T":{"ha":871,"x_min":261,"x_max":1314,"o":"m 297 738 q 275 774 261 738 l 351 963 q 403 1000 368 1000 l 1275 1000 q 1297 963 1314 1000 l 1221 774 q 1169 738 1207 738 l 297 738 m 818 678 q 840 642 854 678 l 596 38 q 544 0 579 0 l 326 0 q 304 38 288 0 l 549 642 q 600 678 563 678 l 818 678 z "},"U":{"ha":1104,"x_min":133,"x_max":1431,"o":"m 174 235 l 468 963 q 519 1000 485 1000 l 739 1000 q 760 963 776 1000 l 483 276 q 492 263 479 263 l 825 263 q 844 276 840 263 l 1122 963 q 1174 1000 1139 1000 l 1392 1000 q 1414 963 1431 1000 l 1119 235 q 994 52 1067 104 q 789 0 921 0 l 314 0 q 174 68 215 0 q 174 235 133 136 z "},"V":{"ha":1019,"x_min":365,"x_max":1457,"o":"m 406 999 l 633 999 q 667 969 667 999 l 667 40 q 622 0 667 0 l 399 0 q 365 29 365 0 l 365 958 q 406 999 365 999 m 729 147 l 729 444 q 733 471 729 461 q 751 499 736 481 l 1129 969 q 1185 999 1153 999 l 1429 999 q 1456 988 1457 999 q 1440 958 1456 978 l 772 147 q 739 121 750 121 q 729 147 729 121 z "},"W":{"ha":1522,"x_min":264,"x_max":1976,"o":"m 268 32 l 365 961 q 411 1000 369 1000 l 647 1000 q 676 968 681 1000 l 603 419 l 986 850 q 1042 878 1010 878 l 1204 878 q 1238 850 1236 878 l 1278 39 q 1235 0 1279 0 l 1010 0 q 978 29 978 0 l 954 464 l 561 28 q 504 0 538 0 l 297 0 q 268 32 264 0 m 1338 533 l 1640 968 q 1696 1000 1663 1000 l 1932 1000 q 1947 961 1976 1000 l 1378 172 q 1350 151 1364 151 q 1336 169 1336 151 l 1321 482 q 1338 533 1319 507 z "},"X":{"ha":917,"x_min":-22,"x_max":1357,"o":"m 1 40 l 475 490 q 482 514 486 501 l 372 958 q 410 999 363 999 l 694 999 q 733 975 726 999 l 961 40 q 922 0 971 0 l 640 0 q 606 26 610 0 l 569 263 l 346 26 q 289 0 319 0 l 7 0 q -17 15 -22 0 q 1 40 -11 29 m 861 844 l 985 972 q 1040 999 1010 999 l 1325 999 q 1352 986 1357 999 q 1332 958 1347 974 l 939 594 q 907 576 921 576 q 890 594 894 576 l 842 790 q 861 844 835 818 z "},"Y":{"ha":974,"x_min":347,"x_max":1424,"o":"m 361 38 l 481 343 q 485 369 488 360 l 369 958 q 408 1000 363 1000 l 679 1000 q 714 972 710 1000 l 789 400 q 779 350 790 378 l 653 38 q 603 0 639 0 l 385 0 q 361 38 347 0 m 838 740 l 1051 974 q 1107 1000 1076 1000 l 1376 1000 q 1385 961 1424 1000 l 889 475 q 857 457 871 457 q 842 476 843 457 l 815 686 q 838 740 810 710 z "},"Z":{"ha":949,"x_min":36,"x_max":1317,"o":"m 372 738 q 350 774 336 738 l 426 963 q 478 1000 443 1000 l 1279 1000 q 1300 963 1317 1000 l 1224 774 q 1174 738 1210 738 l 372 738 m 1064 676 q 1064 638 1118 676 l 556 263 l 981 263 q 1003 226 1017 263 l 926 38 q 907 6 915 13 q 875 0 899 0 l 74 0 q 53 38 36 0 l 129 226 q 143 253 138 246 q 169 275 149 260 l 688 656 q 715 674 707 671 q 744 676 724 676 l 1064 676 z "},"[":{"ha":453,"x_min":-19,"x_max":958,"o":"m 568 1190 q 601 1214 579 1214 l 933 1214 q 947 1190 958 1214 l 881 1024 q 847 1000 871 1000 l 742 1000 q 726 989 731 1000 l 311 -39 q 317 -50 306 -50 l 422 -50 q 438 -74 447 -50 l 369 -240 q 336 -264 360 -264 l 4 -264 q -10 -240 -19 -264 l 568 1190 z "},"^":{"ha":968,"x_min":274,"x_max":1025,"o":"m 757 744 q 783 754 772 754 q 807 742 799 754 l 1019 432 q 1025 414 1025 425 q 1006 385 1025 399 l 853 276 q 826 267 839 267 q 804 281 814 267 l 676 469 l 392 276 q 364 267 372 267 q 343 281 353 267 l 279 389 q 274 404 274 400 q 294 435 274 418 l 757 744 z "},"_":{"ha":667,"x_min":-51,"x_max":719,"o":"m 696 -76 q 710 -100 719 -76 l 653 -240 q 619 -264 643 -264 l -28 -264 q -42 -240 -51 -264 l 15 -100 q 49 -76 25 -76 l 696 -76 z "},"`":{"ha":842,"x_min":604,"x_max":901,"o":"m 725 794 q 693 813 700 794 l 611 982 q 626 1000 604 1000 l 847 1000 q 874 979 869 1000 l 897 815 q 876 794 901 794 l 725 794 z "},"a":{"ha":874,"x_min":92,"x_max":1036,"o":"m 444 263 q 417 258 424 263 q 403 232 411 253 q 422 203 390 203 q 466 206 432 203 q 535 214 500 210 l 540 214 q 550 193 557 214 l 489 42 q 453 14 479 19 q 326 -7 385 1 q 236 -15 267 -15 q 122 36 153 -15 q 125 171 92 88 l 167 275 q 269 421 207 375 q 431 467 331 467 l 714 467 q 729 478 724 467 l 735 489 q 713 508 746 508 l 375 508 q 361 532 351 508 l 425 690 q 458 714 435 714 l 883 714 q 1001 656 967 714 q 1003 514 1036 597 l 804 24 q 771 0 794 0 l 560 0 q 546 24 536 0 l 639 251 q 632 263 643 263 l 444 263 z "},"b":{"ha":904,"x_min":88,"x_max":1079,"o":"m 635 219 q 664 240 657 219 l 763 485 q 756 506 769 506 l 753 506 l 629 493 l 625 493 q 614 522 600 493 l 672 665 q 715 701 683 694 q 844 721 794 717 q 933 725 893 725 q 1045 665 1011 725 q 1046 522 1079 606 l 917 203 q 808 45 871 90 q 632 0 744 0 l 118 0 q 99 31 88 0 l 506 1038 q 550 1068 517 1068 l 756 1068 q 774 1038 785 1068 l 446 228 q 451 219 442 219 l 635 219 z "},"c":{"ha":769,"x_min":107,"x_max":1018,"o":"m 239 0 q 135 47 163 0 q 138 169 107 93 l 289 544 q 381 676 328 639 q 528 714 433 714 l 986 714 q 1006 683 1018 714 l 942 526 q 897 494 929 494 l 558 494 q 531 475 539 494 l 436 240 q 447 219 428 219 l 786 219 q 806 189 817 219 l 742 31 q 697 0 729 0 l 239 0 z "},"d":{"ha":900,"x_min":114,"x_max":1251,"o":"m 558 494 q 529 475 538 494 l 431 229 q 440 208 421 208 l 444 208 l 563 219 q 581 192 593 222 l 521 46 q 478 13 510 18 q 351 -5 407 1 q 268 -11 296 -11 q 149 49 185 -11 q 147 193 114 110 l 276 511 q 385 669 321 624 q 563 714 449 714 l 831 714 q 842 722 840 714 l 969 1039 q 1013 1069 983 1069 l 1219 1069 q 1238 1039 1251 1069 l 831 31 q 788 0 819 0 l 581 0 q 563 31 551 0 l 747 486 q 742 494 750 494 l 558 494 z "},"e":{"ha":908,"x_min":146,"x_max":1106,"o":"m 632 461 q 713 451 681 454 q 753 447 746 447 q 781 452 774 447 q 796 474 789 457 l 797 478 q 802 502 804 497 q 781 507 800 507 l 592 507 q 550 478 561 507 l 453 238 q 471 208 442 208 l 807 208 q 821 185 831 208 l 756 24 q 722 0 746 0 l 299 0 q 181 58 215 0 q 179 200 146 117 l 307 515 q 415 668 350 621 q 588 715 479 715 l 946 715 q 1071 666 1036 715 q 1068 524 1106 617 l 1021 404 q 931 268 982 308 q 804 228 879 228 q 703 237 775 228 q 551 260 632 246 q 539 288 528 264 l 600 440 q 622 463 610 463 q 627 462 625 463 q 632 461 629 461 z "},"f":{"ha":563,"x_min":119,"x_max":1040,"o":"m 131 31 l 315 486 q 310 494 319 494 l 246 494 q 228 526 214 494 l 292 683 q 335 714 303 714 l 397 714 q 408 722 404 714 l 468 867 q 576 1024 514 979 q 753 1069 639 1069 l 1011 1069 q 1029 1039 1040 1069 l 969 889 q 926 858 957 858 l 754 858 q 725 838 733 858 l 678 722 q 683 714 674 714 l 793 714 q 811 683 822 714 l 747 526 q 704 494 733 494 l 594 494 q 583 486 588 494 l 399 31 q 356 0 386 0 l 149 0 q 131 31 119 0 z "},"g":{"ha":893,"x_min":113,"x_max":1106,"o":"m 557 494 q 529 475 535 494 l 429 229 q 436 208 421 208 l 442 208 l 571 221 l 575 221 q 588 193 600 221 l 529 50 q 486 15 518 21 q 344 -4 407 3 q 254 -11 281 -11 q 146 49 179 -11 q 147 193 113 110 l 275 511 q 384 669 321 624 q 561 714 447 714 l 1075 714 q 1093 683 1106 714 l 796 -54 q 687 -212 750 -167 q 511 -257 624 -257 l 164 -257 q 146 -226 133 -257 l 207 -74 q 250 -42 221 -42 l 519 -42 q 549 -22 540 -42 l 756 492 q 754 494 758 494 l 557 494 z "},"h":{"ha":908,"x_min":88,"x_max":1079,"o":"m 99 31 l 506 1039 q 550 1069 519 1069 l 756 1069 q 774 1039 788 1069 l 367 31 q 324 0 356 0 l 118 0 q 99 31 88 0 m 579 31 l 763 485 q 754 506 772 506 l 750 506 l 631 494 l 626 494 q 614 524 603 494 l 672 665 q 715 701 685 696 q 842 719 786 713 q 925 725 897 725 q 1044 665 1008 725 q 1046 522 1079 606 l 847 31 q 804 0 836 0 l 597 0 q 579 31 568 0 z "},"i":{"ha":419,"x_min":78,"x_max":746,"o":"m 353 683 q 397 714 365 714 l 603 714 q 622 683 635 714 l 358 31 q 314 0 347 0 l 108 0 q 89 31 78 0 l 353 683 m 465 961 q 510 992 476 992 l 715 992 q 735 961 746 992 l 674 813 q 629 781 663 781 l 424 781 q 404 813 393 781 l 465 961 z "},"j":{"ha":440,"x_min":-196,"x_max":767,"o":"m 625 714 q 643 683 654 714 l 344 -54 q 236 -212 299 -167 q 60 -257 174 -257 l -165 -257 q -183 -226 -196 -257 l -119 -69 q -76 -37 -107 -37 l 64 -37 q 92 -18 83 -37 l 375 683 q 419 714 386 714 l 625 714 m 736 992 q 756 961 767 992 l 689 799 q 646 767 676 767 l 440 767 q 421 799 408 767 l 488 961 q 531 992 500 992 l 736 992 z "},"k":{"ha":799,"x_min":88,"x_max":1092,"o":"m 99 31 l 506 1039 q 550 1069 518 1069 l 756 1069 q 774 1039 788 1069 l 600 610 l 1058 728 q 1068 729 1063 729 q 1082 704 1092 729 l 1011 528 q 967 489 999 496 l 508 372 q 503 367 506 371 l 367 31 q 324 0 354 0 l 118 0 q 99 31 88 0 m 563 344 l 765 396 q 778 397 771 397 q 800 378 797 397 l 840 32 q 838 4 843 8 q 808 0 832 0 l 585 0 q 554 25 558 0 l 531 306 q 535 332 529 325 q 563 344 540 339 z "},"l":{"ha":560,"x_min":121,"x_max":774,"o":"m 276 0 q 157 59 193 0 q 156 203 121 118 l 493 1039 q 536 1069 506 1069 l 743 1069 q 761 1039 774 1069 l 438 240 q 450 219 429 219 l 622 219 q 640 189 654 219 l 576 31 q 535 0 565 0 l 276 0 z "},"m":{"ha":1447,"x_min":78,"x_max":1618,"o":"m 600 517 l 657 657 q 672 682 664 675 q 703 693 679 689 q 860 716 785 707 q 960 725 936 725 q 1058 678 1022 725 q 1167 694 1108 686 q 1283 710 1226 703 q 1386 721 1339 717 q 1463 725 1433 725 q 1583 665 1547 725 q 1585 522 1618 606 l 1386 31 q 1342 0 1375 0 l 1136 0 q 1118 31 1107 0 l 1301 485 q 1289 506 1308 503 l 1063 485 q 1051 475 1057 485 l 871 31 q 826 0 860 0 l 622 0 q 604 31 593 0 l 788 485 q 779 506 797 506 l 775 506 l 618 488 l 610 488 q 600 517 588 488 m 89 31 l 353 683 q 396 714 365 714 l 603 714 q 621 683 632 714 l 357 31 q 314 0 346 0 l 107 0 q 89 31 78 0 z "},"n":{"ha":894,"x_min":78,"x_max":1069,"o":"m 569 31 l 753 485 q 747 506 760 506 l 744 506 l 615 488 l 608 488 q 601 517 590 488 l 660 658 q 703 694 672 689 q 926 725 868 725 q 1036 665 1003 725 q 1036 522 1069 606 l 838 31 q 794 0 826 0 l 588 0 q 569 31 558 0 m 89 31 l 353 683 q 397 714 365 714 l 603 714 q 621 683 633 714 l 357 31 q 314 0 344 0 l 108 0 q 89 31 78 0 z "},"o":{"ha":889,"x_min":107,"x_max":1071,"o":"m 138 169 l 289 544 q 381 676 328 639 q 528 714 435 714 l 939 714 q 1043 668 1015 714 q 1039 544 1071 622 l 888 169 q 797 38 850 75 q 650 0 744 0 l 501 0 q 483 29 471 0 l 547 190 q 590 219 560 219 l 618 219 q 649 242 642 219 l 743 474 q 729 494 750 494 l 551 494 q 529 474 536 494 l 435 242 q 449 219 428 219 l 478 219 q 494 190 507 219 l 431 29 q 389 0 418 0 l 239 0 q 135 47 163 0 q 138 169 107 93 z "},"p":{"ha":893,"x_min":-31,"x_max":1063,"o":"m 250 -226 q 207 -257 238 -257 l 1 -257 q -18 -226 -31 -257 l 350 683 q 394 714 361 714 l 908 714 q 1027 654 992 714 q 1029 511 1063 594 l 900 193 q 793 34 854 79 q 625 -11 732 -11 q 547 -6 601 -11 q 425 14 492 0 q 410 49 399 19 l 468 192 q 481 215 475 211 q 507 219 488 219 l 617 208 q 647 229 639 208 l 746 475 q 733 494 754 494 l 550 494 q 539 486 543 494 l 250 -226 z "},"q":{"ha":894,"x_min":114,"x_max":1107,"o":"m 560 494 q 531 475 539 494 l 432 229 q 442 208 422 208 l 446 208 l 564 219 l 569 219 q 582 192 594 219 l 524 49 q 479 14 511 19 q 347 -5 404 1 q 258 -11 290 -11 q 149 49 183 -11 q 149 193 114 108 l 278 511 q 387 669 324 624 q 564 714 450 714 l 1078 714 q 1096 683 1107 714 l 728 -226 q 685 -257 715 -257 l 478 -257 q 460 -226 447 -257 l 749 486 q 743 494 753 494 l 560 494 z "},"r":{"ha":732,"x_min":78,"x_max":981,"o":"m 353 683 q 397 714 365 714 l 594 714 q 614 683 626 714 l 610 674 q 731 711 668 697 q 826 725 794 725 q 954 665 928 725 q 949 522 981 606 l 881 351 q 836 321 869 321 l 631 321 q 613 351 601 321 l 665 485 q 650 506 674 506 q 606 502 639 506 q 542 493 574 499 q 535 489 536 490 l 350 31 q 306 0 339 0 l 108 0 q 89 31 78 0 l 353 683 z "},"s":{"ha":793,"x_min":76,"x_max":994,"o":"m 146 175 q 190 206 160 206 l 563 206 q 601 232 590 206 q 583 257 610 257 l 361 257 q 228 325 264 257 q 229 488 192 393 q 349 662 278 610 q 546 714 421 714 l 964 714 q 982 683 994 714 l 924 539 q 881 508 911 508 l 519 508 q 485 486 493 508 q 501 464 475 464 l 724 464 q 857 393 822 464 q 853 228 892 322 q 732 51 803 101 q 536 0 661 0 l 107 0 q 88 31 76 0 l 146 175 z "},"t":{"ha":588,"x_min":139,"x_max":853,"o":"m 175 203 l 289 486 q 285 494 293 494 l 232 494 q 214 526 203 494 l 278 683 q 321 714 289 714 l 374 714 q 385 722 383 714 l 449 879 q 492 911 461 911 l 699 911 q 717 879 728 911 l 653 722 q 658 714 651 714 l 821 714 q 840 683 853 714 l 776 526 q 732 494 764 494 l 569 494 q 557 486 561 494 l 458 240 q 471 219 451 219 l 643 219 q 661 189 672 219 l 597 31 q 554 0 586 0 l 296 0 q 173 56 207 0 q 175 203 139 113 z "},"u":{"ha":894,"x_min":114,"x_max":1107,"o":"m 147 193 l 346 683 q 390 714 360 714 l 596 714 q 614 683 626 714 l 431 229 q 443 208 422 208 q 490 213 454 208 q 568 224 526 217 q 590 219 583 224 q 590 197 597 215 l 532 56 q 489 21 521 26 q 265 -11 332 -11 q 149 49 183 -11 q 147 193 114 110 m 571 31 l 835 683 q 878 714 849 714 l 1076 714 q 1094 683 1107 714 l 831 31 q 788 0 819 0 l 589 0 q 571 31 560 0 z "},"v":{"ha":788,"x_min":249,"x_max":1113,"o":"m 249 682 q 285 714 249 714 l 511 714 q 540 688 540 714 l 536 32 q 501 0 536 0 l 294 0 q 265 28 265 0 l 249 682 m 608 428 l 811 688 q 861 714 831 714 l 1089 714 q 1106 693 1113 714 q 1097 682 1103 688 l 622 114 q 597 94 607 94 q 589 114 589 94 l 589 379 q 593 405 589 397 q 608 428 597 413 z "},"w":{"ha":1250,"x_min":153,"x_max":1579,"o":"m 157 28 l 244 682 q 282 714 246 714 l 493 714 q 519 688 524 714 l 465 318 l 743 625 q 794 650 767 650 l 981 650 q 1013 625 1008 650 l 1101 32 q 1068 0 1106 0 l 860 0 q 831 25 831 0 l 790 408 l 443 25 q 392 0 419 0 l 183 0 q 157 28 153 0 m 1114 424 l 1288 688 q 1336 714 1306 714 l 1547 714 q 1564 692 1579 714 l 1175 114 q 1154 96 1163 96 q 1144 111 1144 96 l 1103 376 q 1114 424 1099 400 z "},"x":{"ha":739,"x_min":-61,"x_max":1085,"o":"m -26 31 l 347 351 q 351 365 353 357 l 244 682 q 274 714 235 714 l 531 714 q 565 693 560 714 l 779 32 q 750 0 790 0 l 476 0 q 446 25 449 0 l 425 150 l 301 25 q 251 0 278 0 l -22 0 q -26 31 -61 0 m 674 626 l 732 690 q 782 714 754 714 l 1044 714 q 1047 682 1085 714 l 754 424 q 729 410 739 410 q 714 424 719 410 l 658 578 q 674 626 650 601 z "},"y":{"ha":813,"x_min":-71,"x_max":1146,"o":"m -58 -226 l 4 -74 q 47 -42 15 -42 l 199 -42 q 260 -32 233 -42 q 286 14 286 -22 l 276 682 q 313 714 276 714 l 522 714 q 551 688 551 714 l 535 7 q 496 -100 532 -46 q 426 -182 460 -154 q 179 -257 336 -257 l -40 -257 q -58 -226 -71 -257 m 590 93 l 597 363 q 618 411 599 388 l 822 688 q 872 714 840 714 l 1110 714 q 1118 682 1146 714 l 624 93 q 600 75 608 75 q 590 93 590 75 z "},"z":{"ha":815,"x_min":42,"x_max":1063,"o":"m 289 499 q 271 531 260 499 l 333 683 q 376 714 346 714 l 1033 714 q 1051 683 1063 714 l 989 531 q 946 499 978 499 l 289 499 m 856 451 q 874 442 872 451 q 856 422 875 433 l 524 219 l 833 219 q 851 189 863 219 l 788 31 q 772 6 779 11 q 744 0 764 0 l 72 0 q 53 31 42 0 l 110 172 q 149 217 122 203 l 506 435 q 557 451 532 451 l 856 451 z "},"{":{"ha":428,"x_min":17,"x_max":911,"o":"m 175 -264 q 50 -213 83 -264 q 53 -75 17 -162 l 189 261 q 172 361 221 342 q 163 392 154 371 l 228 554 q 263 585 236 575 q 321 618 300 596 q 360 685 342 640 l 497 1024 q 601 1171 540 1129 q 772 1213 661 1213 l 888 1213 q 901 1189 911 1213 l 835 1024 q 801 1000 825 1000 l 792 1000 q 720 982 744 1000 q 676 919 696 964 l 561 632 q 507 536 535 567 q 419 474 479 506 q 456 410 453 442 q 432 314 458 379 l 317 29 q 308 -31 301 -11 q 367 -51 315 -51 l 376 -51 q 390 -75 400 -51 l 324 -240 q 290 -264 314 -264 l 175 -264 z "},"|":{"ha":633,"x_min":89,"x_max":872,"o":"m 604 1047 q 649 1076 617 1076 l 843 1076 q 872 1057 872 1076 q 868 1039 872 1050 l 356 -228 q 313 -258 344 -258 l 117 -258 q 89 -237 89 -258 q 93 -219 89 -231 l 604 1047 z "},"~":{"ha":649,"x_min":174,"x_max":893,"o":"m 175 497 q 174 510 174 501 q 200 543 174 526 q 436 632 344 632 q 553 599 500 632 q 667 567 606 567 q 807 617 718 567 q 833 626 826 626 q 853 606 847 626 l 883 518 q 861 469 893 490 q 713 392 783 417 q 596 368 642 368 q 476 401 529 368 q 365 433 424 433 q 317 426 342 433 q 250 394 293 418 q 226 386 236 386 q 203 404 208 386 l 175 497 z "},"‚":{"ha":246,"x_min":-83,"x_max":274,"o":"m 250 128 q 260 104 274 128 l 56 -240 q 18 -264 43 -264 l -60 -264 q -74 -240 -83 -264 l 65 104 q 99 128 76 128 l 250 128 z "},"ƒ":{"ha":758,"x_min":-100,"x_max":1143,"o":"m -90 -240 l -31 -93 q 3 -69 -21 -69 l 79 -69 q 124 -40 107 -69 l 450 560 q 444 571 456 571 l 374 571 q 363 594 351 571 l 417 692 q 453 715 428 715 l 524 715 q 540 726 535 715 l 582 800 q 717 959 649 918 q 907 1000 786 1000 l 1119 1000 q 1133 976 1143 1000 l 1072 824 q 1039 800 1061 800 l 869 800 q 824 771 840 800 l 799 726 q 804 715 793 715 l 922 715 q 933 692 944 715 l 879 594 q 843 571 868 571 l 725 571 q 708 560 714 571 l 368 -64 q 235 -225 301 -186 q 60 -264 168 -264 l -76 -264 q -90 -240 -100 -264 z "},"„":{"ha":526,"x_min":-85,"x_max":554,"o":"m 207 -242 l 346 104 q 379 128 357 128 l 531 128 q 540 104 554 128 l 336 -242 q 299 -265 322 -265 l 221 -265 q 207 -242 196 -265 m -74 -242 l 65 104 q 99 128 76 128 l 250 128 q 260 104 274 128 l 56 -242 q 18 -265 42 -265 l -60 -265 q -74 -242 -85 -265 z "},"†":{"ha":697,"x_min":225,"x_max":1039,"o":"m 225 608 q 229 626 225 617 l 290 779 q 333 810 303 810 l 557 810 q 564 815 561 810 l 657 1047 q 700 1076 668 1076 l 861 1076 q 890 1057 890 1076 q 878 1024 890 1056 q 851 951 867 992 q 820 872 835 911 q 799 818 806 833 q 804 810 794 810 l 1011 810 q 1037 799 1035 810 q 1035 771 1039 788 l 974 618 q 931 588 961 588 l 715 588 q 704 579 708 588 l 478 31 q 435 0 465 0 l 274 0 q 245 11 249 0 q 249 38 242 22 l 474 579 q 468 588 478 588 l 253 588 q 225 608 225 588 z "},"‡":{"ha":693,"x_min":82,"x_max":1051,"o":"m 93 288 l 156 444 q 189 468 167 468 l 418 468 q 433 479 429 468 l 436 486 q 469 510 447 510 l 635 510 q 649 486 660 510 l 646 479 q 653 468 642 468 l 882 468 q 896 444 907 468 l 833 288 q 800 264 822 264 l 571 264 q 556 253 560 264 l 463 24 q 429 0 453 0 l 264 0 q 250 24 240 0 l 343 253 q 336 264 347 264 l 107 264 q 93 288 82 264 m 238 646 l 301 803 q 333 826 311 826 l 563 826 q 579 838 574 826 l 667 1056 q 700 1079 676 1079 l 865 1079 q 879 1056 889 1079 l 792 838 q 797 826 786 826 l 1026 826 q 1042 803 1051 826 l 978 646 q 944 622 968 622 l 715 622 q 700 611 704 622 l 697 604 q 664 581 686 581 l 499 581 q 485 604 474 581 l 488 611 q 481 622 492 622 l 251 622 q 238 646 228 622 z "},"ˆ":{"ha":904,"x_min":531,"x_max":1121,"o":"m 1101 942 q 1103 913 1121 933 l 1026 807 q 1000 789 1013 789 q 989 792 997 789 l 797 851 l 554 792 q 542 789 543 789 q 531 807 531 789 l 538 913 q 564 942 538 935 l 838 1008 q 863 1013 853 1013 q 882 1008 872 1013 l 1101 942 z "},"‹":{"ha":619,"x_min":200,"x_max":785,"o":"m 678 721 q 697 732 692 732 q 710 722 706 732 l 775 611 q 761 578 785 594 l 469 358 l 583 139 q 571 106 594 124 l 417 -4 q 396 -14 403 -14 q 385 -3 389 -14 l 207 340 q 221 376 200 358 l 678 721 z "},"‘":{"ha":246,"x_min":314,"x_max":658,"o":"m 336 715 q 326 739 314 715 l 519 1056 q 557 1079 533 1079 l 635 1079 q 649 1056 658 1079 l 521 739 q 488 715 511 715 l 336 715 z "},"’":{"ha":246,"x_min":313,"x_max":657,"o":"m 635 1079 q 644 1056 657 1079 l 451 739 q 414 715 438 715 l 336 715 q 322 739 313 715 l 450 1056 q 483 1079 460 1079 l 635 1079 z "},"“":{"ha":550,"x_min":314,"x_max":946,"o":"m 614 739 l 807 1056 q 844 1079 821 1079 l 922 1079 q 936 1056 946 1079 l 808 739 q 775 715 799 715 l 624 715 q 614 739 601 715 m 326 739 l 519 1056 q 557 1079 533 1079 l 635 1079 q 649 1056 658 1079 l 521 739 q 488 715 511 715 l 336 715 q 326 739 314 715 z "},"”":{"ha":532,"x_min":313,"x_max":951,"o":"m 617 739 l 744 1056 q 778 1079 754 1079 l 929 1079 q 939 1056 951 1079 l 746 739 q 708 715 732 715 l 631 715 q 617 739 607 715 m 322 739 l 450 1056 q 483 1079 460 1079 l 635 1079 q 644 1056 657 1079 l 451 739 q 414 715 438 715 l 336 715 q 322 739 313 715 z "},"•":{"ha":838,"x_min":196,"x_max":928,"o":"m 397 592 q 431 615 407 615 l 904 615 q 918 592 928 615 l 726 118 q 693 94 717 94 l 219 94 q 206 118 196 94 l 397 592 z "},"–":{"ha":714,"x_min":153,"x_max":850,"o":"m 229 440 q 263 464 239 464 l 826 464 q 840 440 850 464 l 774 275 q 740 251 764 251 l 176 251 q 163 275 153 251 l 229 440 z "},"—":{"ha":950,"x_min":118,"x_max":1121,"o":"m 194 440 q 228 464 204 464 l 1097 464 q 1111 440 1121 464 l 1044 275 q 1011 251 1035 251 l 142 251 q 128 275 118 251 l 194 440 z "},"˜":{"ha":860,"x_min":483,"x_max":1103,"o":"m 490 890 q 508 925 483 910 q 711 1000 633 1000 q 815 971 767 1000 q 915 942 863 942 q 1042 986 963 942 q 1061 994 1054 994 q 1072 982 1068 994 l 1096 908 q 1079 872 1103 890 q 951 807 1011 828 q 853 786 892 786 q 749 815 796 786 q 647 843 701 843 q 603 836 624 843 q 544 810 582 829 q 525 803 528 803 q 513 815 517 803 l 490 890 z "},"£":{"ha":976,"x_min":-7,"x_max":1107,"o":"m 3 24 l 81 217 q 114 240 90 240 l 171 240 l 231 389 l 199 389 q 185 413 175 389 l 232 529 q 265 553 242 553 l 297 553 l 386 772 q 508 948 436 896 q 706 1000 581 1000 l 1021 1000 q 1035 976 1044 1000 l 957 785 q 924 761 947 761 l 671 761 q 646 743 654 761 l 569 553 l 724 553 q 738 529 747 553 l 690 413 q 657 389 681 389 l 503 389 l 356 24 q 322 0 346 0 l 17 0 q 3 24 -7 0 m 425 24 l 503 217 q 536 240 513 240 l 794 240 q 835 269 825 240 l 861 333 q 894 357 871 357 l 1083 357 q 1097 333 1107 357 l 1043 200 q 935 46 999 92 q 763 0 872 0 l 439 0 q 425 24 415 0 z "},"¦":{"ha":633,"x_min":89,"x_max":872,"o":"m 604 1047 q 649 1076 617 1076 l 843 1076 q 872 1057 872 1076 q 868 1039 872 1050 l 678 569 q 635 539 665 539 l 439 539 q 410 560 410 539 q 414 578 410 568 l 604 1047 m 279 242 q 322 272 292 272 l 518 272 q 546 251 546 272 q 542 233 546 244 l 356 -229 q 313 -260 343 -260 l 117 -260 q 89 -239 89 -260 q 93 -221 89 -232 l 279 242 z "},"§":{"ha":907,"x_min":142,"x_max":1135,"o":"m 146 38 l 204 182 q 247 213 217 213 l 604 213 q 631 221 615 213 q 653 249 646 229 q 656 264 656 254 q 640 278 656 278 l 628 278 q 599 299 599 278 q 603 317 599 307 l 647 425 q 690 456 658 456 l 747 456 q 774 466 757 456 q 803 504 792 476 q 808 524 808 515 q 788 544 808 544 l 565 544 q 535 535 554 544 q 506 497 517 525 q 500 475 500 486 q 521 456 500 456 l 576 456 q 604 435 604 456 q 600 417 604 428 l 557 308 q 514 278 543 278 l 429 278 q 313 317 357 278 q 269 419 269 357 q 305 542 269 482 q 385 643 340 603 q 378 689 378 667 q 460 927 378 854 q 713 1000 543 1000 l 1106 1000 q 1135 979 1135 1000 q 1131 961 1135 972 l 1072 818 q 1028 788 1060 788 l 704 788 q 669 773 686 788 q 651 739 651 758 q 668 721 651 721 l 879 721 q 996 683 953 721 q 1039 581 1039 646 q 1003 458 1039 519 q 924 356 968 396 q 931 308 931 332 q 848 72 931 144 q 596 0 765 0 l 169 0 q 142 21 142 0 q 146 38 142 28 z "},"¨":{"ha":828,"x_min":461,"x_max":1092,"o":"m 803 818 l 867 976 q 900 1000 876 1000 l 1068 1000 q 1082 976 1092 1000 l 1018 818 q 985 794 1008 794 l 817 794 q 803 818 793 794 m 471 818 l 535 976 q 568 1000 544 1000 l 736 1000 q 750 976 760 1000 l 686 818 q 653 794 676 794 l 485 794 q 471 818 461 794 z "},"©":{"ha":1510,"x_min":22,"x_max":1788,"o":"m 696 -233 l 747 -106 q 781 -82 758 -82 l 1165 -82 q 1190 -64 1183 -82 l 1543 807 q 1532 825 1551 825 l 1147 825 q 1133 849 1124 825 l 1185 976 q 1218 1000 1194 1000 l 1613 1000 q 1754 934 1721 1000 q 1749 772 1788 868 l 1424 -29 q 1358 -160 1389 -114 q 1291 -228 1326 -207 q 1210 -253 1256 -250 q 1104 -257 1165 -257 l 710 -257 q 696 -233 686 -257 m 61 -29 l 386 772 q 447 902 419 856 q 508 970 475 949 q 588 996 542 992 q 706 1000 635 1000 l 1100 1000 q 1114 976 1124 1000 l 1063 849 q 1029 825 1053 825 l 644 825 q 619 807 626 825 l 267 -64 q 278 -82 258 -82 l 663 -82 q 676 -106 688 -82 l 625 -233 q 592 -257 615 -257 l 197 -257 q 62 -191 101 -257 q 61 -29 22 -125 m 513 200 l 639 515 q 747 669 683 624 q 919 715 811 715 l 1299 715 q 1313 692 1322 715 l 1247 531 q 1214 507 1238 507 l 922 507 q 882 478 893 507 l 786 238 q 804 208 774 208 l 1096 208 q 1110 185 1119 208 l 1044 24 q 1011 0 1035 0 l 632 0 q 514 58 549 0 q 513 200 479 117 z "},"«":{"ha":1069,"x_min":192,"x_max":1222,"o":"m 767 611 q 753 578 776 594 l 471 365 q 465 351 463 358 l 575 139 q 563 106 586 124 l 408 -4 q 388 -14 394 -14 q 376 -3 381 -14 l 199 340 q 213 376 192 358 l 669 721 q 689 732 683 732 q 701 722 697 732 l 767 611 m 1213 611 q 1199 578 1222 594 l 917 365 q 911 351 908 358 l 1021 139 q 1008 106 1032 124 l 854 -4 q 833 -14 840 -14 q 822 -3 826 -14 l 644 340 q 658 376 638 358 l 1115 721 q 1135 732 1129 732 q 1147 722 1143 732 l 1213 611 z "},"¬":{"ha":983,"x_min":231,"x_max":1154,"o":"m 297 579 q 342 608 310 608 l 1126 608 q 1154 588 1154 608 q 1150 571 1154 582 l 1024 254 q 979 224 1011 224 l 808 224 q 781 244 781 224 q 783 263 781 256 l 840 388 l 260 388 q 231 407 233 388 q 232 415 231 410 q 235 425 233 419 l 297 579 z "},"®":{"ha":1443,"x_min":126,"x_max":1622,"o":"m 718 24 l 769 151 q 803 175 779 175 l 1119 175 q 1144 193 1136 175 l 1393 807 q 1382 825 1401 825 l 1065 825 q 1051 849 1042 825 l 1103 976 q 1136 1000 1113 1000 l 1449 1000 q 1590 934 1557 1000 q 1585 772 1622 868 l 1364 228 q 1244 48 1311 96 q 1044 0 1176 0 l 732 0 q 718 24 708 0 m 165 228 l 386 772 q 505 947 435 894 q 706 1000 575 1000 l 1018 1000 q 1032 976 1042 1000 l 981 849 q 947 825 971 825 l 631 825 q 606 807 614 825 l 357 193 q 368 175 349 175 l 685 175 q 699 151 708 175 l 647 24 q 614 0 638 0 l 301 0 q 166 66 206 0 q 165 228 126 132 m 460 251 l 656 736 q 689 760 665 760 l 892 760 q 909 756 906 760 q 906 736 913 753 l 901 726 q 1010 756 953 742 q 1114 771 1068 771 q 1229 713 1204 771 q 1221 571 1254 654 l 1179 467 q 1146 443 1169 443 l 935 443 q 921 467 911 443 l 947 533 q 928 563 960 563 q 892 560 917 563 q 842 551 867 557 q 825 538 831 550 l 710 251 q 676 228 700 228 l 474 228 q 460 251 450 228 z "},"¯":{"ha":843,"x_min":521,"x_max":1051,"o":"m 579 961 q 611 985 589 985 l 1026 985 q 1042 961 1051 985 l 994 844 q 961 821 983 821 l 546 821 q 532 844 521 821 l 579 961 z "},"°":{"ha":526,"x_min":271,"x_max":875,"o":"m 433 503 q 306 588 342 515 q 311 760 271 660 q 458 949 358 878 q 676 1019 558 1019 q 830 944 785 1019 q 831 760 875 868 q 699 581 786 649 q 499 503 611 514 q 493 510 490 503 l 553 654 q 564 665 557 664 q 671 760 642 689 q 670 831 688 801 q 611 860 653 860 q 528 831 569 860 q 471 760 488 801 q 499 665 442 689 q 504 654 507 661 l 444 510 q 433 503 440 501 z "},"´":{"ha":842,"x_min":600,"x_max":1064,"o":"m 1040 1000 q 1042 982 1064 1000 l 821 813 q 775 794 799 794 l 624 794 q 619 815 600 794 l 776 979 q 819 1000 796 1000 l 1040 1000 z "},"µ":{"ha":900,"x_min":-28,"x_max":1118,"o":"m -17 -239 l 358 692 q 392 715 368 715 l 594 715 q 608 692 618 715 l 233 -239 q 200 -262 222 -262 l -3 -262 q -17 -239 -28 -262 m 418 47 l 476 193 q 500 214 483 214 q 504 213 503 214 q 508 213 506 213 q 581 201 546 206 q 621 197 617 197 q 663 226 650 194 l 850 692 q 883 715 860 715 l 1094 715 q 1108 692 1118 715 l 906 189 q 798 34 861 79 q 625 -11 735 -11 q 552 -3 607 -11 q 431 19 497 6 q 418 47 407 24 z "},"¶":{"ha":1065,"x_min":232,"x_max":1372,"o":"m 265 442 l 410 799 q 517 955 454 910 q 692 1000 581 1000 l 1349 1000 q 1363 976 1372 1000 l 871 -240 q 838 -264 861 -264 l 694 -264 q 681 -240 671 -264 l 1096 788 q 1089 799 1101 799 l 1025 799 q 1010 788 1015 799 l 594 -240 q 561 -264 585 -264 l 418 -264 q 404 -240 394 -264 l 819 788 q 813 799 825 799 l 678 799 q 638 769 650 799 l 519 479 q 538 450 510 450 l 590 450 q 604 426 614 450 l 539 265 q 506 242 529 242 l 385 242 q 267 300 301 242 q 265 442 232 358 z "},"·":{"ha":824,"x_min":401,"x_max":713,"o":"m 486 451 q 519 475 497 475 l 688 475 q 701 451 713 475 l 628 267 q 594 243 617 243 l 426 243 q 413 267 401 243 l 486 451 z "},"¸":{"ha":731,"x_min":132,"x_max":507,"o":"m 217 -160 q 239 -161 225 -161 q 336 -118 299 -161 q 382 0 374 -75 l 507 0 q 451 -196 496 -125 q 258 -267 406 -267 q 210 -265 235 -267 q 156 -260 185 -264 q 149 -232 132 -256 l 181 -179 q 208 -158 194 -158 q 213 -159 211 -158 q 217 -160 214 -160 z "},"×":{"ha":963,"x_min":214,"x_max":1153,"o":"m 575 867 q 600 878 593 878 q 624 863 615 878 l 743 656 l 1036 867 q 1063 878 1054 878 q 1085 863 1076 878 l 1147 754 q 1153 738 1153 743 q 1133 706 1153 719 l 839 500 l 963 292 q 967 275 967 275 q 946 244 967 260 l 794 138 q 769 126 776 126 q 746 142 757 126 l 625 344 l 333 138 q 307 126 315 126 q 285 142 293 126 l 219 249 q 214 265 214 260 q 235 296 214 282 l 531 504 l 407 708 q 401 726 401 718 q 421 758 401 742 l 575 867 z "},"Þ":{"ha":1003,"x_min":83,"x_max":1290,"o":"m 844 349 q 886 378 874 349 l 983 618 q 965 647 996 647 l 626 647 q 613 638 617 647 l 365 24 q 332 0 356 0 l 107 0 q 93 24 83 0 l 478 976 q 511 1000 488 1000 l 736 1000 q 750 976 760 1000 l 706 865 q 711 856 701 856 l 1138 856 q 1256 797 1221 856 q 1257 656 1290 739 l 1129 340 q 1020 186 1085 232 q 849 140 956 140 l 506 140 q 492 164 481 140 l 557 325 q 589 349 567 349 l 844 349 z "},"ß":{"ha":1078,"x_min":83,"x_max":1288,"o":"m 93 24 l 306 550 q 299 561 310 561 l 235 561 q 221 585 211 561 l 286 746 q 319 769 296 769 l 383 769 q 399 781 394 769 l 478 976 q 511 1000 488 1000 l 1082 1000 q 1242 918 1197 1000 q 1239 715 1288 836 l 1233 700 q 1128 558 1204 631 q 1167 460 1157 513 q 1149 338 1178 408 l 1118 260 q 1051 122 1085 174 q 980 44 1018 71 q 894 8 942 17 q 785 0 847 0 l 489 0 q 475 24 465 0 l 553 218 q 586 242 564 242 l 771 242 q 826 256 800 242 q 869 311 853 271 l 882 344 q 883 394 894 374 q 842 415 871 415 l 753 415 q 739 439 728 415 l 797 586 q 831 610 808 610 l 872 610 q 931 631 901 610 q 971 681 960 651 l 974 688 q 975 740 988 722 q 933 758 963 758 l 672 758 q 656 747 661 758 l 364 24 q 331 0 354 0 l 107 0 q 93 24 83 0 z "},"þ":{"ha":917,"x_min":-10,"x_max":1078,"o":"m 633 208 q 674 238 661 208 l 771 478 q 753 507 783 507 l 585 507 q 569 496 575 507 l 272 -240 q 239 -264 263 -264 l 14 -264 q 0 -240 -10 -264 l 492 976 q 525 1000 501 1000 l 750 1000 q 764 976 774 1000 l 663 726 q 669 715 658 715 l 925 715 q 1043 657 1008 715 q 1044 515 1078 599 l 917 200 q 808 46 872 92 q 636 0 743 0 l 463 0 q 449 24 439 0 l 514 185 q 547 208 524 208 l 633 208 z "},"˘":{"ha":843,"x_min":510,"x_max":1038,"o":"m 642 993 q 664 1006 657 1006 q 678 999 668 1006 q 807 953 731 953 q 972 997 883 953 q 992 1004 986 1004 q 1004 992 1000 1004 l 1031 892 q 1013 858 1038 871 q 742 789 874 789 q 525 858 607 789 q 532 892 510 871 l 642 993 z "},"˙":{"ha":832,"x_min":629,"x_max":928,"o":"m 703 976 q 736 1000 713 1000 l 904 1000 q 918 976 928 1000 l 854 818 q 821 794 844 794 l 653 794 q 639 818 629 794 l 703 976 z "},"˚":{"ha":868,"x_min":271,"x_max":600,"o":"m 306 914 q 387 998 335 967 q 492 1029 439 1029 q 572 998 544 1029 q 588 914 600 967 q 571 900 583 900 l 485 900 q 474 913 478 900 q 450 926 469 926 q 415 913 433 926 q 393 900 403 900 l 308 900 q 306 914 296 900 m 281 853 q 296 867 283 867 l 381 867 q 394 856 388 867 q 417 843 399 843 q 449 854 433 843 q 471 867 465 867 l 558 867 q 563 853 569 867 q 480 773 532 804 q 375 742 428 742 q 297 773 322 742 q 281 853 271 804 z "},"˝":{"ha":778,"x_min":401,"x_max":1203,"o":"m 758 815 l 915 979 q 958 1000 935 1000 l 1179 1000 q 1181 982 1203 1000 l 960 813 q 914 794 938 794 l 763 794 q 758 815 739 794 m 421 815 l 578 979 q 621 1000 597 1000 l 842 1000 q 843 982 865 1000 l 622 813 q 576 794 600 794 l 425 794 q 421 815 401 794 z "},"˛":{"ha":843,"x_min":369,"x_max":724,"o":"m 653 -229 q 618 -257 643 -253 q 517 -267 564 -267 q 403 -240 438 -267 q 376 -174 369 -214 q 431 -87 383 -133 q 558 0 478 -40 l 724 0 q 616 -74 651 -43 q 573 -123 581 -104 q 582 -150 565 -142 q 628 -158 599 -158 q 658 -157 647 -158 q 663 -156 661 -157 q 668 -156 665 -156 q 675 -176 682 -156 l 653 -229 z "},"ˇ":{"ha":904,"x_min":510,"x_max":1101,"o":"m 794 792 q 771 788 782 788 q 750 792 763 788 l 531 858 q 528 888 510 865 l 606 993 q 631 1011 619 1011 q 642 1008 633 1011 l 836 949 l 1076 1008 q 1089 1011 1088 1011 q 1101 993 1101 1011 l 1093 888 q 1068 858 1093 867 l 794 792 z "},"ı":{"ha":419,"x_min":78,"x_max":635,"o":"m 353 683 q 397 714 365 714 l 603 714 q 622 683 635 714 l 358 31 q 314 0 347 0 l 108 0 q 89 31 78 0 l 353 683 z "},"⁄":{"ha":201,"x_min":-253,"x_max":865,"o":"m -229 0 q -233 21 -253 0 l 660 979 q 703 1000 679 1000 l 842 1000 q 846 979 865 1000 l -47 21 q -90 0 -67 0 l -229 0 z "},"Ł":{"ha":806,"x_min":58,"x_max":922,"o":"m 114 210 q 97 206 104 206 q 85 219 86 206 l 63 338 q 85 369 58 358 l 256 450 q 272 467 267 456 l 478 976 q 511 1000 488 1000 l 736 1000 q 750 976 760 1000 l 603 611 l 793 700 q 811 706 803 706 q 822 692 821 706 l 846 574 q 825 542 849 553 l 114 210 m 463 317 q 478 321 474 321 q 479 304 486 321 l 458 253 q 464 242 453 242 l 897 242 q 911 218 922 242 l 833 24 q 800 0 824 0 l 107 0 q 93 24 83 0 l 143 149 q 178 183 154 172 l 463 317 z "},"−":{"ha":968,"x_min":233,"x_max":1142,"o":"m 1075 424 q 1031 394 1063 394 l 263 394 q 233 414 233 394 q 238 432 233 422 l 300 585 q 344 615 313 615 l 1113 615 q 1142 594 1142 615 q 1138 578 1142 586 l 1075 424 z "},"\\":{"ha":640,"x_min":339,"x_max":699,"o":"m 488 0 q 457 22 458 0 l 340 978 q 357 1000 339 1000 l 550 1000 q 581 978 579 1000 l 697 22 q 681 0 699 0 l 488 0 z "},"±":{"ha":961,"x_min":-46,"x_max":1150,"o":"m 231 432 l 293 585 q 338 615 306 615 l 611 615 q 617 619 615 615 l 725 892 q 769 922 738 922 l 922 922 q 947 885 964 922 l 838 625 q 844 615 833 615 l 1106 615 q 1131 578 1150 615 l 1068 424 q 1024 394 1056 394 l 756 394 q 747 390 749 394 l 636 115 q 592 86 624 86 l 439 86 q 414 124 399 86 l 525 385 q 518 394 529 394 l 256 394 q 231 432 215 394 m -26 -208 l 35 -54 q 78 -25 47 -25 l 846 -25 q 874 -35 871 -25 q 871 -62 878 -46 l 810 -215 q 767 -246 797 -246 l -3 -246 q -26 -208 -46 -246 z "},"÷":{"ha":976,"x_min":238,"x_max":1146,"o":"m 478 271 q 522 300 490 300 l 686 300 q 715 279 715 300 q 711 263 715 274 l 638 82 q 594 51 625 51 l 429 51 q 401 72 401 51 q 406 90 401 81 l 478 271 m 304 585 q 349 615 317 615 l 1117 615 q 1146 594 1146 615 q 1142 578 1146 586 l 1079 424 q 1035 394 1067 394 l 267 394 q 238 414 239 394 q 242 432 238 421 l 304 585 m 740 918 q 783 947 753 947 l 949 947 q 972 910 988 947 l 900 729 q 856 700 888 700 l 692 700 q 663 719 663 700 q 667 738 663 728 l 740 918 z "},"Ø":{"ha":1088,"x_min":63,"x_max":1418,"o":"m 83 -10 l 168 64 q 165 228 128 132 l 386 772 q 517 934 424 868 q 706 1000 610 1000 l 1190 1000 q 1236 996 1215 1000 l 1310 1060 q 1333 1072 1326 1072 q 1346 1067 1340 1072 l 1404 1013 q 1396 981 1418 1000 l 1329 924 q 1326 772 1361 858 l 1106 228 q 975 66 1068 132 q 786 0 882 0 l 301 0 q 269 3 289 0 l 160 -93 q 138 -106 146 -106 q 124 -99 131 -106 l 76 -43 q 83 -10 63 -29 m 461 242 l 821 242 q 847 260 839 242 l 1040 740 q 1031 758 1049 758 l 671 758 q 644 740 653 758 l 451 260 q 461 242 443 242 m 564 408 l 858 665 q 879 678 871 678 q 892 669 886 678 l 942 611 q 932 576 954 597 l 639 324 q 617 311 625 311 q 606 318 613 311 l 554 375 q 564 408 542 389 z "},"¤":{"ha":910,"x_min":139,"x_max":1179,"o":"m 561 188 l 644 396 l 686 396 q 728 425 715 396 l 783 565 q 767 594 796 594 l 726 594 l 811 803 l 922 803 q 958 799 942 803 l 1082 886 q 1101 896 1093 896 q 1115 886 1110 896 l 1168 799 q 1156 765 1179 783 l 1056 694 q 1040 603 1060 649 l 954 388 q 897 299 933 339 l 936 232 q 924 199 947 217 l 803 113 q 782 103 789 103 q 769 113 776 103 l 721 193 q 674 188 699 188 l 561 188 m 163 232 l 253 296 q 269 388 249 338 l 356 603 q 415 696 376 653 l 378 763 q 392 796 367 779 l 514 885 q 535 894 528 894 q 547 885 543 894 l 597 799 q 638 803 618 803 l 747 803 l 663 594 l 626 594 q 585 565 597 594 l 529 425 q 546 396 517 396 l 581 396 l 497 188 l 389 188 q 349 192 368 188 l 235 111 q 215 101 221 101 q 201 111 208 101 l 150 199 q 163 232 139 215 z "},"€":{"ha":938,"x_min":175,"x_max":1286,"o":"m 303 565 l 339 653 q 372 676 349 676 l 429 676 q 444 688 440 676 l 479 772 q 602 948 529 896 q 799 1000 675 1000 l 1263 1000 q 1276 976 1286 1000 l 1200 786 q 1167 763 1189 763 l 776 763 q 735 733 747 763 l 717 688 q 724 676 713 676 l 976 676 q 990 653 1000 676 l 954 565 q 922 542 944 542 l 318 542 q 303 565 293 542 m 185 354 l 219 442 q 253 465 231 465 l 857 465 q 871 442 882 465 l 836 354 q 803 331 826 331 l 583 331 q 568 319 572 331 l 547 267 q 564 238 535 238 l 954 238 q 968 214 978 238 l 892 24 q 858 0 882 0 l 394 0 q 259 66 299 0 q 258 228 219 132 l 296 319 q 289 331 300 331 l 199 331 q 185 354 175 331 z "},"¥":{"ha":960,"x_min":199,"x_max":1415,"o":"m 208 192 l 236 260 q 268 283 246 283 l 458 283 l 485 350 l 483 357 l 232 357 q 218 381 207 357 l 246 449 q 278 472 256 472 l 461 472 l 363 979 q 382 1000 357 1000 l 660 1000 q 686 979 682 1000 l 763 390 q 756 346 764 369 l 731 283 l 921 283 q 936 260 946 283 l 908 192 q 875 168 899 168 l 683 168 l 625 24 q 592 0 615 0 l 367 0 q 353 24 343 0 l 411 168 l 222 168 q 208 192 199 168 m 824 726 l 1071 993 q 1114 1014 1090 1014 l 1392 1014 q 1394 994 1415 1014 l 868 476 l 1065 476 q 1079 453 1089 476 l 1051 385 q 1018 361 1042 361 l 867 361 q 842 382 843 361 l 836 456 l 836 463 q 835 465 836 464 q 835 468 835 465 l 807 685 q 824 726 806 706 z "},")":{"ha":421,"x_min":-117,"x_max":822,"o":"m -26 -31 q 25 6 -12 6 l 103 6 q 108 10 104 6 l 496 968 q 493 972 496 972 l 415 972 q 393 1008 379 972 l 469 1197 q 521 1235 486 1235 l 643 1235 q 783 1167 743 1235 q 782 999 822 1099 l 371 -22 q 244 -202 321 -147 q 40 -257 167 -257 l -82 -257 q -103 -219 -117 -257 l -26 -31 z "},"]":{"ha":453,"x_min":-121,"x_max":857,"o":"m 268 -240 q 235 -264 258 -264 l -97 -264 q -111 -240 -121 -264 l -43 -74 q -11 -50 -33 -50 l 94 -50 q 111 -39 106 -50 l 526 989 q 519 1000 531 1000 l 414 1000 q 400 1024 390 1000 l 467 1190 q 500 1214 478 1214 l 832 1214 q 846 1190 857 1214 l 268 -240 z "},"}":{"ha":428,"x_min":-104,"x_max":792,"o":"m 544 361 q 447 261 479 340 l 311 -76 q 206 -224 268 -182 q 36 -265 143 -265 l -79 -265 q -93 -242 -104 -265 l -26 -76 q 7 -53 -17 -53 l 17 -53 q 92 -33 68 -53 q 131 28 115 -12 l 246 314 q 300 410 272 379 q 389 474 328 442 q 351 536 354 506 q 375 632 349 567 l 490 919 q 499 982 510 964 q 442 1000 489 1000 l 432 1000 q 418 1024 408 1000 l 485 1189 q 518 1213 494 1213 l 633 1213 q 758 1162 725 1213 q 756 1024 792 1111 l 618 685 q 635 585 586 606 q 644 554 653 575 l 579 392 q 544 361 571 371 z "},">":{"ha":974,"x_min":247,"x_max":900,"o":"m 657 767 q 678 776 672 776 q 690 765 683 776 l 892 374 q 878 339 900 356 l 358 -54 q 339 -64 347 -64 q 325 -54 331 -64 l 258 54 q 271 88 247 71 l 628 357 l 486 625 q 500 658 475 642 l 657 767 z "},"›":{"ha":601,"x_min":103,"x_max":688,"o":"m 681 375 q 667 339 688 357 l 211 -4 q 190 -15 197 -15 q 178 -6 185 -15 l 113 104 q 126 138 103 121 l 407 349 q 414 365 417 357 l 304 576 q 317 610 293 593 l 472 721 q 492 731 488 731 q 503 719 499 731 l 681 375 z "},"Ð":{"ha":1043,"x_min":83,"x_max":1319,"o":"m 93 24 l 238 381 q 231 392 242 392 l 192 392 q 178 415 168 392 l 244 581 q 278 604 254 604 l 317 604 q 332 615 328 604 l 478 976 q 511 1000 488 1000 l 1146 1000 q 1281 934 1242 1000 q 1282 772 1319 868 l 1061 228 q 938 53 1013 106 q 742 0 864 0 l 449 0 q 435 24 425 0 l 513 218 q 546 242 524 242 l 776 242 q 803 260 794 242 l 996 740 q 986 758 1004 758 l 674 758 q 657 747 663 758 l 604 615 q 611 604 600 604 l 750 604 q 764 581 774 604 l 697 415 q 664 392 688 392 l 525 392 q 510 381 514 392 l 365 24 q 332 0 356 0 l 107 0 q 93 24 83 0 z "},"Đ":{"ha":1043,"x_min":82,"x_max":1322,"o":"m 99 38 l 472 963 q 524 1000 489 1000 l 1142 1000 q 1281 932 1240 1000 q 1282 765 1322 864 l 1067 235 q 941 52 1014 104 q 738 0 868 0 l 474 0 q 453 38 436 0 l 529 226 q 579 263 543 263 l 774 263 q 793 276 789 263 l 975 724 q 967 738 979 738 l 685 738 q 665 724 669 738 l 608 582 l 772 582 q 786 558 797 582 l 739 442 q 707 418 729 418 l 542 418 l 388 38 q 336 0 371 0 l 119 0 q 99 38 82 0 z "},"đ":{"ha":910,"x_min":114,"x_max":1290,"o":"m 147 189 l 279 515 q 394 657 313 599 q 560 715 476 715 l 840 715 q 856 726 851 715 l 881 789 q 875 800 886 800 l 674 800 q 660 824 649 800 l 707 940 q 739 964 717 964 l 940 964 q 957 975 951 964 l 989 1056 q 1022 1079 999 1079 l 1233 1079 q 1247 1056 1257 1079 l 1215 975 q 1221 964 1210 964 l 1265 964 q 1281 940 1290 964 l 1233 824 q 1200 800 1222 800 l 1156 800 q 1139 789 1144 800 l 831 24 q 797 0 821 0 l 586 0 q 572 24 563 0 l 763 496 q 756 507 768 507 l 563 507 q 522 478 535 507 l 421 226 q 439 197 408 197 q 484 201 450 197 q 558 208 518 204 l 564 208 q 574 188 581 208 l 513 39 q 479 13 503 14 q 351 -4 408 3 q 265 -11 293 -11 q 149 47 183 -11 q 147 189 114 106 z "},"ð":{"ha":981,"x_min":122,"x_max":1468,"o":"m 536 417 q 496 388 508 417 l 449 271 q 465 242 436 242 l 707 242 q 749 271 736 242 l 935 732 q 941 747 938 736 q 946 760 944 757 l 733 660 q 715 654 724 654 q 704 668 706 654 l 693 726 q 717 760 692 747 l 879 838 l 813 838 l 568 838 q 553 861 543 838 l 632 1056 q 665 1079 642 1079 l 1119 1079 q 1254 1011 1214 1079 l 1424 1090 q 1440 1094 1435 1094 q 1453 1081 1451 1094 l 1463 1022 q 1442 990 1468 1003 l 1271 911 q 1256 851 1267 878 l 1003 228 q 879 52 953 104 q 683 0 806 0 l 297 0 q 163 66 203 0 q 161 228 122 132 l 228 392 q 351 568 278 517 q 547 619 424 619 l 796 619 q 810 596 821 619 l 747 440 q 714 417 738 417 l 536 417 z "},"»":{"ha":1051,"x_min":106,"x_max":1136,"o":"m 921 721 q 940 731 936 731 q 951 719 947 731 l 1129 375 q 1115 339 1136 357 l 660 -4 q 639 -15 646 -15 q 626 -6 633 -15 l 561 104 q 575 138 551 121 l 856 349 q 863 365 865 357 l 753 576 q 765 610 742 593 l 921 721 m 475 721 q 494 731 490 731 q 506 719 501 731 l 683 375 q 669 339 692 356 l 214 -4 q 193 -15 200 -15 q 181 -6 188 -15 l 115 104 q 129 138 106 121 l 410 349 q 417 365 419 357 l 307 576 q 319 610 296 593 l 475 721 z "},"™":{"ha":1268,"x_min":326,"x_max":1582,"o":"m 776 522 l 960 976 q 993 1000 969 1000 l 1101 1000 q 1128 979 1124 1000 l 1158 708 l 1408 979 q 1451 1000 1428 1000 l 1558 1000 q 1572 976 1582 1000 l 1389 522 q 1356 499 1379 499 l 1239 499 q 1225 522 1215 499 l 1288 676 l 1168 547 q 1125 526 1149 526 l 1043 526 q 1017 547 1021 526 l 1003 676 l 940 522 q 907 499 931 499 l 790 499 q 776 522 767 499 m 336 878 l 376 976 q 410 1000 386 1000 l 900 1000 q 914 976 924 1000 l 874 878 q 840 854 864 854 l 350 854 q 336 878 326 854 m 379 522 l 486 789 q 519 813 497 813 l 638 813 q 651 789 663 813 l 544 522 q 511 499 535 499 l 393 499 q 379 522 369 499 z "},"…":{"ha":1258,"x_min":51,"x_max":1256,"o":"m 956 24 l 1031 208 q 1063 232 1040 232 l 1231 232 q 1246 208 1256 232 l 1171 24 q 1138 0 1161 0 l 969 0 q 956 24 946 0 m 508 24 l 583 208 q 615 232 593 232 l 783 232 q 799 208 808 232 l 724 24 q 690 0 714 0 l 522 0 q 508 24 499 0 m 61 24 l 136 208 q 168 232 146 232 l 336 232 q 351 208 361 232 l 276 24 q 243 0 267 0 l 75 0 q 61 24 51 0 z "},"¹":{"ha":275,"x_min":225,"x_max":617,"o":"m 599 1186 q 610 1168 617 1186 l 397 644 q 372 626 390 626 l 243 626 q 232 644 225 626 l 385 1021 l 349 1011 q 344 1010 346 1011 q 340 1010 343 1010 q 336 1025 331 1010 l 386 1150 q 413 1174 393 1168 l 432 1181 q 469 1186 450 1186 l 599 1186 z "},"²":{"ha":546,"x_min":215,"x_max":915,"o":"m 469 1168 q 494 1186 476 1186 l 818 1186 q 893 1149 871 1186 q 894 1058 915 1111 l 854 958 q 785 860 826 889 q 674 831 743 831 l 465 831 q 457 825 458 831 l 454 819 q 444 814 453 814 l 310 814 q 299 832 292 814 l 300 835 q 369 933 328 903 q 479 963 410 963 l 683 963 q 694 971 692 963 l 719 1032 q 714 1040 724 1040 l 435 1040 q 425 1058 418 1040 l 469 1168 m 760 772 q 771 754 778 772 l 726 644 q 701 626 719 626 l 233 626 q 222 644 215 626 l 267 754 q 292 772 274 772 l 760 772 z "},"³":{"ha":538,"x_min":265,"x_max":907,"o":"m 317 754 q 342 772 324 772 l 596 772 q 608 781 606 772 l 628 829 q 622 838 632 838 l 528 838 q 518 856 511 838 l 558 956 q 583 974 565 974 l 679 974 q 690 982 688 974 l 711 1032 q 706 1040 714 1040 l 468 1040 q 458 1058 451 1040 l 503 1168 q 528 1186 510 1186 l 810 1186 q 885 1149 863 1186 q 886 1058 907 1111 l 858 992 q 792 906 840 943 q 789 819 811 872 l 763 754 q 694 656 735 685 q 583 626 654 626 l 283 626 q 272 644 265 626 l 317 754 z "},"¡":{"ha":457,"x_min":-6,"x_max":646,"o":"m 272 356 q 307 379 285 379 l 478 379 q 493 356 503 379 l 275 -240 q 243 -264 268 -264 l 18 -264 q 6 -240 -6 -264 l 272 356 m 419 713 q 453 736 431 736 l 621 736 q 635 713 646 736 l 561 528 q 528 504 550 504 l 360 504 q 346 528 335 504 l 419 713 z "},"":{"ha":813,"x_min":-203,"x_max":1013,"o":"m 392 -231 l 408 450 q 493 653 411 593 q 715 714 575 714 l 983 714 q 1001 683 1013 714 l 939 531 q 896 499 928 499 l 710 499 q 665 489 674 499 q 657 443 657 479 l 667 -225 q 631 -257 667 -257 l 421 -257 q 392 -231 390 -257 m 444 996 q 585 1175 490 1111 q 793 1239 679 1239 q 881 1215 843 1239 q 941 1151 919 1190 q 966 1062 963 1111 q 950 964 969 1013 q 824 789 901 844 q 625 722 746 733 q 619 729 617 722 l 679 874 q 690 885 682 883 q 797 979 768 908 q 797 1050 814 1021 q 738 1079 779 1079 q 655 1050 696 1079 q 597 979 614 1021 q 625 885 568 908 q 631 874 633 882 l 571 729 q 560 722 568 722 q 436 815 468 735 q 444 996 404 896 m -175 -225 l 319 364 q 344 382 336 382 q 353 364 354 382 l 344 94 q 325 46 344 71 l 121 -231 q 71 -257 101 -257 l -167 -257 q -175 -225 -203 -257 m 58 524 l 125 689 q 158 713 135 713 l 417 713 q 431 689 440 713 l 364 524 q 331 500 353 500 l 72 500 q 58 524 47 500 z "},"%":{"ha":1471,"x_min":235,"x_max":1596,"o":"m 379 17 q 392 39 379 26 l 1265 976 q 1315 1000 1288 1000 l 1451 1000 q 1475 983 1475 1000 q 1463 960 1475 975 l 590 24 q 539 0 567 0 l 404 0 q 379 17 379 0 m 254 571 l 296 675 q 333 700 307 700 l 458 700 q 478 667 494 700 l 450 604 q 456 596 446 596 l 589 596 q 600 604 596 596 l 631 676 q 665 701 642 701 l 790 701 q 814 692 811 701 q 813 668 817 683 l 769 563 q 697 460 740 490 q 583 431 654 431 l 340 431 q 255 474 275 431 q 254 571 235 518 m 940 140 l 982 244 q 1019 269 993 269 l 1144 269 q 1164 236 1178 269 l 1136 174 q 1142 165 1132 165 l 1275 165 q 1286 174 1282 165 l 1317 246 q 1351 271 1328 271 l 1476 271 q 1500 262 1497 271 q 1499 238 1503 253 l 1456 132 q 1383 30 1426 60 q 1269 0 1340 0 l 1026 0 q 941 44 961 0 q 940 140 921 88 m 1021 338 l 1061 438 q 1133 539 1089 508 q 1247 569 1176 569 l 1490 569 q 1575 525 1554 569 q 1576 429 1596 481 l 1536 332 q 1500 307 1525 307 l 1375 307 q 1354 339 1342 307 l 1378 396 q 1372 404 1382 404 l 1240 404 q 1229 396 1233 404 l 1203 331 q 1167 306 1192 306 l 1042 306 q 1021 338 1010 306 m 335 768 l 375 868 q 447 969 403 939 q 561 1000 490 1000 l 804 1000 q 889 956 868 1000 q 890 860 910 911 l 850 763 q 814 738 839 738 l 689 738 q 668 769 656 738 l 692 826 q 686 835 696 835 l 554 835 q 543 826 547 835 l 517 761 q 481 736 506 736 l 356 736 q 335 768 324 736 z "},"‰":{"ha":1806,"x_min":235,"x_max":1928,"o":"m 379 17 q 392 39 379 26 l 1265 976 q 1315 1000 1288 1000 l 1451 1000 q 1475 983 1475 1000 q 1463 960 1475 975 l 590 24 q 539 0 567 0 l 404 0 q 379 17 379 0 m 940 140 l 982 244 q 1019 269 993 269 l 1144 269 q 1164 236 1178 269 l 1136 174 q 1142 165 1132 165 l 1281 165 l 1313 244 q 1351 271 1325 271 l 1476 271 q 1499 238 1513 271 l 1469 165 l 1606 165 q 1617 174 1613 165 l 1647 246 q 1682 271 1658 271 l 1807 271 q 1829 238 1843 271 l 1786 132 q 1714 30 1757 60 q 1600 0 1671 0 l 1357 0 q 1322 4 1338 0 q 1269 0 1297 0 l 1026 0 q 941 44 961 0 q 940 140 921 88 m 1021 338 l 1061 438 q 1133 539 1089 508 q 1247 569 1176 569 l 1490 569 q 1525 565 1511 569 q 1578 569 1550 569 l 1821 569 q 1906 525 1885 569 q 1907 429 1928 481 l 1867 332 q 1831 307 1856 307 l 1706 307 q 1685 339 1672 307 l 1708 396 q 1703 404 1713 404 l 1571 404 q 1564 399 1567 404 l 1536 332 q 1497 306 1525 306 l 1372 306 q 1351 338 1340 306 l 1378 404 l 1240 404 q 1229 396 1233 404 l 1203 331 q 1167 306 1192 306 l 1042 306 q 1021 338 1010 306 m 254 571 l 296 675 q 333 700 307 700 l 458 700 q 478 667 492 700 l 450 604 q 456 596 446 596 l 589 596 q 600 604 596 596 l 631 676 q 665 701 642 701 l 790 701 q 814 692 811 701 q 813 668 817 683 l 769 563 q 697 460 740 490 q 583 431 654 431 l 340 431 q 255 474 275 431 q 254 571 235 518 m 335 768 l 375 868 q 447 969 403 939 q 561 1000 490 1000 l 804 1000 q 890 956 868 1000 q 890 860 911 911 l 850 763 q 814 738 839 738 l 689 738 q 668 769 656 738 l 692 826 q 686 835 696 835 l 554 835 q 543 826 547 835 l 517 761 q 481 736 506 736 l 356 736 q 335 768 324 736 z "},"º":{"ha":511,"x_min":188,"x_max":854,"o":"m 289 669 l 381 896 q 437 974 404 951 q 524 997 469 997 l 776 997 q 838 969 821 997 q 835 896 854 942 l 743 669 q 603 568 703 568 l 511 568 q 503 582 497 568 l 544 686 q 564 699 550 699 l 576 699 q 600 715 593 699 l 654 850 q 644 867 661 867 l 544 867 q 525 850 532 867 l 471 715 q 481 699 464 699 l 494 699 q 503 686 508 699 l 461 582 q 442 568 456 568 l 350 568 q 288 596 306 568 q 289 669 271 624 m 197 436 l 228 513 q 261 536 239 536 l 654 536 q 668 513 679 536 l 638 436 q 604 413 628 413 l 211 413 q 197 436 188 413 z "},"ª":{"ha":499,"x_min":214,"x_max":828,"o":"m 254 513 q 288 536 265 536 l 657 536 q 671 513 682 536 l 640 436 q 607 413 631 413 l 238 413 q 224 436 214 413 l 254 513 m 646 865 q 636 875 650 875 l 488 875 q 476 893 469 875 l 513 982 q 538 1000 519 1000 l 739 1000 q 808 966 788 1000 q 808 883 828 932 l 700 617 q 675 599 693 599 l 558 599 q 547 617 540 599 l 592 725 q 586 735 596 735 l 496 735 q 476 722 482 735 l 475 718 q 483 704 468 704 q 522 710 494 704 q 526 710 525 710 q 529 711 528 711 q 535 694 542 711 l 507 625 q 479 603 500 607 q 396 593 425 593 q 322 626 343 593 q 321 708 301 660 l 333 738 q 394 822 360 797 q 492 847 429 847 l 628 847 q 642 857 638 847 l 646 865 z "},"ﬁ":{"ha":1064,"x_min":10,"x_max":1425,"o":"m 24 -219 l 311 492 l 247 492 q 218 511 218 492 q 222 529 218 519 l 286 685 q 329 714 296 714 l 397 714 q 401 718 401 714 l 463 867 q 570 1022 507 978 q 744 1067 633 1067 l 1000 1067 q 1025 1029 1042 1067 l 965 882 q 922 851 953 851 l 751 851 q 722 831 731 851 l 294 -228 q 251 -257 282 -257 l 47 -257 q 24 -219 10 -257 m 642 529 l 706 685 q 749 714 718 714 l 1243 714 q 1267 676 1281 714 l 1006 29 q 963 0 993 0 l 758 0 q 733 38 718 0 l 918 492 l 667 492 q 638 511 638 492 q 642 529 638 519 m 1064 844 q 1068 863 1064 853 l 1138 1038 q 1181 1067 1150 1067 l 1385 1067 q 1410 1029 1425 1067 l 1339 854 q 1296 825 1326 825 l 1092 825 q 1064 844 1064 825 z "},"ﬂ":{"ha":1044,"x_min":10,"x_max":1426,"o":"m 24 -219 l 310 492 l 247 492 q 218 511 218 492 q 222 529 218 519 l 286 685 q 329 714 296 714 l 397 714 q 401 718 401 714 l 463 867 q 569 1023 507 979 q 744 1067 632 1067 l 1390 1067 q 1420 1060 1414 1067 q 1415 1029 1426 1054 l 1086 224 l 1108 224 q 1136 203 1136 224 q 1132 186 1136 197 l 1069 29 q 1026 0 1057 0 l 860 0 q 778 43 797 0 q 778 135 758 86 l 1068 843 q 1063 851 1072 851 l 751 851 q 722 831 731 851 l 674 714 l 931 714 q 958 694 958 714 q 954 676 958 688 l 892 521 q 849 492 879 492 l 588 492 q 582 486 585 492 l 294 -228 q 251 -257 282 -257 l 47 -257 q 24 -219 10 -257 z "},"Ç":{"ha":929,"x_min":128,"x_max":1304,"o":"m 971 263 q 993 226 1007 263 l 917 38 q 865 0 900 0 l 308 0 q 169 68 210 0 q 168 235 128 136 l 383 765 q 509 948 436 896 q 713 1000 582 1000 l 1269 1000 q 1290 963 1304 1000 l 1214 774 q 1164 738 1200 738 l 696 738 q 676 722 683 738 l 496 276 q 504 263 492 263 l 971 263 m 413 -160 q 435 -161 421 -161 q 532 -118 494 -161 q 578 0 569 -75 l 703 0 q 647 -196 692 -125 q 454 -267 601 -267 q 406 -265 431 -267 q 351 -260 381 -264 q 344 -232 328 -256 l 376 -179 q 404 -158 390 -158 q 408 -159 407 -158 q 413 -160 410 -160 z "},"¿":{"ha":846,"x_min":-221,"x_max":796,"o":"m 422 -226 q 371 -264 406 -264 l -40 -264 q -180 -196 -139 -264 q -180 -29 -221 -128 l -121 118 q 8 299 -69 245 q 210 354 85 354 l 360 354 l 381 407 q 433 442 396 442 l 625 442 q 650 407 664 442 l 542 139 q 494 107 529 107 l 171 107 q 165 103 167 107 l 118 -12 q 121 -17 117 -17 l 471 -17 q 492 -53 508 -17 l 422 -226 m 713 533 q 661 497 699 497 l 443 497 q 421 533 407 497 l 488 699 q 540 736 504 736 l 758 736 q 779 699 796 736 l 713 533 z "},"¢":{"ha":789,"x_min":126,"x_max":1026,"o":"m 160 200 l 288 515 q 396 668 331 621 q 568 715 461 715 l 656 715 l 714 858 q 747 882 724 882 l 947 882 q 961 858 971 882 l 903 715 l 1003 715 q 1017 692 1026 715 l 951 531 q 918 507 942 507 l 571 507 q 531 478 543 507 l 433 238 q 451 208 421 208 l 799 208 q 813 185 822 208 l 747 24 q 714 0 738 0 l 614 0 l 556 -143 q 524 -167 546 -167 l 324 -167 q 308 -143 299 -167 l 367 0 l 279 0 q 161 58 196 0 q 160 200 126 117 z "},"Q":{"ha":1088,"x_min":128,"x_max":1363,"o":"m 168 235 l 382 764 q 508 947 435 894 q 711 999 581 999 l 1182 999 q 1322 931 1282 999 q 1322 764 1363 864 l 1108 235 q 983 52 1056 104 q 779 0 910 0 l 771 0 l 719 -182 q 704 -215 713 -208 q 672 -221 696 -221 l 558 -221 q 526 -190 522 -221 l 581 264 q 626 303 585 303 l 774 303 q 812 292 803 303 q 811 236 821 281 l 819 236 l 1014 725 q 1006 738 1019 738 l 676 738 q 657 725 663 738 l 472 263 l 483 263 q 514 231 518 263 l 490 39 q 444 0 486 0 l 294 0 q 162 68 196 0 q 168 235 128 136 z "},"$":{"ha":1061,"x_min":117,"x_max":1333,"o":"m 322 617 l 382 764 q 509 944 433 890 q 711 999 585 999 l 728 999 l 781 1129 q 832 1165 797 1165 l 957 1165 q 979 1129 996 1165 l 836 774 q 785 738 822 738 l 668 738 q 661 733 663 738 l 619 629 q 622 625 618 625 l 1006 625 q 1145 557 1104 625 q 1146 390 1186 489 l 1082 235 q 959 51 1028 103 q 761 0 890 0 l 710 -131 q 657 -168 696 -168 l 532 -168 q 511 -131 497 -168 l 654 225 q 706 263 671 263 l 797 263 q 804 267 803 263 l 849 378 q 846 382 851 382 l 463 382 q 323 450 364 382 q 322 617 282 518 m 133 36 l 208 225 q 260 263 225 263 l 592 263 q 614 225 631 263 l 471 -131 q 418 -168 457 -168 l 293 -168 q 272 -131 258 -168 l 325 0 l 154 0 q 133 36 117 0 m 876 774 l 1019 1129 q 1071 1165 1036 1165 l 1196 1165 q 1218 1129 1235 1165 l 1165 999 l 1297 999 q 1319 963 1333 999 l 1243 774 q 1193 738 1229 738 l 899 738 q 876 774 863 738 z "},"ó":{"ha":893,"x_min":150,"x_max":1147,"o":"m 181 169 l 332 544 q 424 676 371 639 q 571 714 478 714 l 982 714 q 1086 668 1058 714 q 1082 544 1114 622 l 931 169 q 840 38 893 75 q 693 0 788 0 l 544 0 q 526 29 514 0 l 590 190 q 633 219 603 219 l 661 219 q 692 242 685 219 l 786 474 q 772 494 793 494 l 594 494 q 572 474 579 494 l 478 242 q 492 219 471 219 l 521 219 q 538 190 550 219 l 474 29 q 432 0 461 0 l 282 0 q 178 47 206 0 q 181 169 150 93 m 1124 1000 q 1125 982 1147 1000 l 904 813 q 858 794 882 794 l 707 794 q 703 815 683 794 l 860 979 q 903 1000 879 1000 l 1124 1000 z "},"Ó":{"ha":1089,"x_min":128,"x_max":1365,"o":"m 168 235 l 383 765 q 509 948 436 896 q 713 1000 582 1000 l 1183 1000 q 1324 932 1283 1000 q 1325 765 1365 864 l 1110 235 q 983 52 1057 104 q 779 0 910 0 l 614 0 q 593 38 576 0 l 669 226 q 719 263 683 263 l 815 263 q 835 276 831 263 l 1015 724 q 1007 738 1019 738 l 678 738 q 658 724 663 738 l 478 276 q 486 263 474 263 l 582 263 q 604 226 618 263 l 528 38 q 476 0 511 0 l 308 0 q 169 68 210 0 q 168 235 128 136 m 1281 1286 q 1282 1268 1304 1286 l 1061 1099 q 1015 1081 1039 1081 l 864 1081 q 860 1101 840 1081 l 1017 1265 q 1060 1286 1036 1286 l 1281 1286 z "},"Ö":{"ha":1089,"x_min":128,"x_max":1365,"o":"m 168 235 l 383 765 q 509 948 436 896 q 713 1000 582 1000 l 1183 1000 q 1324 932 1283 1000 q 1325 765 1365 864 l 1110 235 q 983 52 1057 104 q 779 0 910 0 l 614 0 q 593 38 576 0 l 669 226 q 719 263 683 263 l 815 263 q 835 276 831 263 l 1015 724 q 1007 738 1019 738 l 678 738 q 658 724 663 738 l 478 276 q 486 263 474 263 l 582 263 q 604 226 618 263 l 528 38 q 476 0 511 0 l 308 0 q 169 68 210 0 q 168 235 128 136 m 1008 1104 l 1072 1263 q 1106 1286 1082 1286 l 1274 1286 q 1288 1263 1297 1286 l 1224 1104 q 1190 1081 1214 1081 l 1022 1081 q 1008 1104 999 1081 m 676 1104 l 740 1263 q 774 1286 750 1286 l 942 1286 q 956 1263 965 1286 l 892 1104 q 858 1081 882 1081 l 690 1081 q 676 1104 667 1081 z "},"Á":{"ha":1022,"x_min":-51,"x_max":1294,"o":"m -18 40 l 749 969 q 806 1000 774 1000 l 1025 1000 q 1057 969 1057 1000 l 1074 40 q 1031 0 1074 0 l 811 0 q 779 31 778 0 l 779 156 q 765 168 779 168 l 532 168 q 521 208 488 168 l 643 363 q 669 387 658 382 q 701 392 679 392 l 767 392 q 781 404 781 392 l 779 617 l 313 31 q 287 6 297 11 q 256 0 276 0 l -8 0 q -18 40 -51 0 m 1271 1286 q 1272 1268 1294 1286 l 1051 1099 q 1006 1081 1029 1081 l 854 1081 q 850 1101 831 1081 l 1007 1265 q 1050 1286 1026 1286 l 1271 1286 z "},"É":{"ha":958,"x_min":82,"x_max":1326,"o":"m 669 575 q 721 613 686 613 l 1071 613 q 1092 575 1108 613 l 1032 425 q 981 388 1015 388 l 631 388 q 610 425 593 388 l 669 575 m 990 263 q 1013 226 1026 263 l 936 38 q 885 0 919 0 l 119 0 q 99 38 82 0 l 472 963 q 524 1000 489 1000 l 1289 1000 q 1310 963 1326 1000 l 1233 774 q 1183 738 1219 738 l 685 738 q 665 724 669 738 l 483 276 q 492 263 479 263 l 990 263 m 1244 1286 q 1246 1268 1268 1286 l 1025 1099 q 979 1081 1003 1081 l 828 1081 q 824 1101 804 1081 l 981 1265 q 1024 1286 1000 1286 l 1244 1286 z "},"Í":{"ha":458,"x_min":82,"x_max":1025,"o":"m 472 963 q 524 1000 489 1000 l 743 1000 q 764 963 781 1000 l 390 38 q 339 0 374 0 l 119 0 q 99 38 82 0 l 472 963 m 1001 1286 q 1003 1268 1025 1286 l 782 1099 q 736 1081 760 1081 l 585 1081 q 581 1101 561 1081 l 738 1265 q 781 1286 757 1286 l 1001 1286 z "},"Ñ":{"ha":1111,"x_min":82,"x_max":1433,"o":"m 99 38 l 472 963 q 524 1000 489 1000 l 743 1000 q 781 975 772 1000 l 936 514 q 939 508 936 508 q 944 517 943 508 l 1125 963 q 1176 1000 1142 1000 l 1394 1000 q 1417 963 1433 1000 l 1043 38 q 990 0 1026 0 l 772 0 q 735 25 743 0 l 581 488 q 576 493 579 493 q 571 485 575 493 l 390 38 q 339 0 374 0 l 119 0 q 99 38 82 0 m 708 1175 q 726 1210 701 1194 q 929 1285 851 1285 q 1033 1256 985 1285 q 1133 1226 1081 1226 q 1260 1271 1181 1226 q 1279 1279 1272 1279 q 1290 1267 1286 1279 l 1314 1193 q 1297 1157 1321 1175 q 1169 1092 1229 1113 q 1071 1071 1110 1071 q 967 1099 1014 1071 q 865 1128 919 1128 q 821 1121 842 1128 q 763 1094 800 1114 q 743 1088 746 1088 q 731 1100 735 1088 l 708 1175 z "},"Ú":{"ha":1104,"x_min":133,"x_max":1431,"o":"m 174 235 l 468 963 q 519 1000 485 1000 l 739 1000 q 760 963 776 1000 l 483 276 q 492 263 479 263 l 825 263 q 844 276 840 263 l 1122 963 q 1174 1000 1139 1000 l 1392 1000 q 1414 963 1431 1000 l 1119 235 q 994 52 1067 104 q 789 0 921 0 l 314 0 q 174 68 215 0 q 174 235 133 136 m 1297 1286 q 1299 1268 1321 1286 l 1078 1099 q 1032 1081 1056 1081 l 881 1081 q 876 1101 857 1081 l 1033 1265 q 1076 1286 1053 1286 l 1297 1286 z "},"Ü":{"ha":1104,"x_min":133,"x_max":1431,"o":"m 174 235 l 468 963 q 519 1000 485 1000 l 739 1000 q 760 963 776 1000 l 483 276 q 492 263 479 263 l 825 263 q 844 276 840 263 l 1122 963 q 1174 1000 1139 1000 l 1392 1000 q 1414 963 1431 1000 l 1119 235 q 994 52 1067 104 q 789 0 921 0 l 314 0 q 174 68 215 0 q 174 235 133 136 m 1025 1104 l 1089 1263 q 1122 1286 1099 1286 l 1290 1286 q 1304 1263 1314 1286 l 1240 1104 q 1207 1081 1231 1081 l 1039 1081 q 1025 1104 1015 1081 m 693 1104 l 757 1263 q 790 1286 767 1286 l 958 1286 q 972 1263 982 1286 l 908 1104 q 875 1081 899 1081 l 707 1081 q 693 1104 683 1081 z "},"Ž":{"ha":949,"x_min":36,"x_max":1317,"o":"m 372 738 q 350 774 336 738 l 426 963 q 478 1000 443 1000 l 1279 1000 q 1300 963 1317 1000 l 1224 774 q 1174 738 1210 738 l 372 738 m 1064 676 q 1064 638 1118 676 l 556 263 l 981 263 q 1003 226 1017 263 l 926 38 q 907 6 915 13 q 875 0 899 0 l 74 0 q 53 38 36 0 l 129 226 q 143 253 138 246 q 169 275 149 260 l 688 656 q 715 674 707 671 q 744 676 724 676 l 1064 676 m 932 1078 q 908 1074 919 1074 q 888 1078 900 1074 l 668 1144 q 665 1174 647 1151 l 743 1279 q 768 1297 757 1297 q 779 1294 771 1297 l 974 1235 l 1214 1294 q 1226 1297 1225 1297 q 1239 1279 1239 1297 l 1231 1174 q 1206 1144 1231 1153 l 932 1078 z "},"Œ":{"ha":1599,"x_min":128,"x_max":1967,"o":"m 168 235 l 383 765 q 509 948 436 896 q 713 1000 582 1000 l 1929 1000 q 1950 963 1967 1000 l 1874 774 q 1824 738 1860 738 l 1325 738 q 1306 724 1310 738 l 1124 276 q 1132 263 1119 263 l 1631 263 q 1653 226 1667 263 l 1576 38 q 1525 0 1560 0 l 760 0 q 739 38 722 0 l 1014 724 q 1007 738 1019 738 l 678 738 q 657 724 663 738 l 478 276 q 486 263 474 263 l 726 263 q 749 226 763 263 l 672 38 q 621 0 656 0 l 308 0 q 169 68 210 0 q 168 235 128 136 m 1250 425 l 1310 575 q 1361 613 1326 613 l 1711 613 q 1732 575 1749 613 l 1672 425 q 1621 388 1656 388 l 1271 388 q 1250 425 1233 388 z "},"Æ":{"ha":1493,"x_min":-51,"x_max":1858,"o":"m -18 40 l 749 969 q 806 1000 774 1000 l 1824 1000 q 1844 963 1858 1000 l 1768 774 q 1718 738 1754 738 l 1219 738 q 1199 724 1204 738 l 1018 276 q 1026 263 1014 263 l 1525 263 q 1547 226 1561 263 l 1471 38 q 1419 0 1454 0 l 654 0 q 633 38 617 0 l 686 168 l 532 168 q 521 208 488 168 l 643 363 q 669 387 658 382 q 701 392 679 392 l 767 392 q 781 404 775 392 l 917 738 l 885 738 q 871 731 878 738 l 313 31 q 287 6 297 11 q 256 0 276 0 l -8 0 q -18 40 -51 0 m 1144 425 l 1204 575 q 1256 613 1221 613 l 1606 613 q 1626 575 1643 613 l 1567 425 q 1515 388 1550 388 l 1165 388 q 1144 425 1128 388 z "},"ç":{"ha":769,"x_min":107,"x_max":1018,"o":"m 239 0 q 135 47 163 0 q 138 169 107 93 l 289 544 q 381 676 328 639 q 528 714 433 714 l 986 714 q 1006 683 1018 714 l 942 526 q 897 494 929 494 l 558 494 q 531 475 539 494 l 436 240 q 447 219 428 219 l 786 219 q 806 189 817 219 l 742 31 q 697 0 729 0 l 239 0 m 278 -160 q 300 -161 286 -161 q 397 -118 360 -161 q 443 0 435 -75 l 568 0 q 512 -196 557 -125 q 319 -267 467 -267 q 271 -265 296 -267 q 217 -260 246 -264 q 210 -232 193 -256 l 242 -179 q 269 -158 256 -158 q 274 -159 272 -158 q 278 -160 275 -160 z "},"í":{"ha":419,"x_min":78,"x_max":888,"o":"m 353 683 q 397 714 365 714 l 603 714 q 622 683 635 714 l 358 31 q 314 0 347 0 l 108 0 q 89 31 78 0 l 353 683 m 864 1000 q 865 982 888 1000 l 644 813 q 599 794 622 794 l 447 794 q 443 815 424 794 l 600 979 q 643 1000 619 1000 l 864 1000 z "},"ñ":{"ha":894,"x_min":78,"x_max":1104,"o":"m 569 31 l 753 485 q 747 506 760 506 l 744 506 l 615 488 l 608 488 q 601 517 590 488 l 660 658 q 703 694 672 689 q 926 725 868 725 q 1036 665 1003 725 q 1036 522 1069 606 l 838 31 q 794 0 826 0 l 588 0 q 569 31 558 0 m 89 31 l 353 683 q 397 714 365 714 l 603 714 q 621 683 633 714 l 357 31 q 314 0 344 0 l 108 0 q 89 31 78 0 m 492 890 q 510 925 485 910 q 713 1000 635 1000 q 816 971 768 1000 q 917 942 864 942 q 1043 986 964 942 q 1063 994 1056 994 q 1074 982 1069 994 l 1097 908 q 1081 872 1104 890 q 953 807 1013 828 q 854 786 893 786 q 750 815 797 786 q 649 843 703 843 q 604 836 625 843 q 546 810 583 829 q 526 803 529 803 q 514 815 518 803 l 492 890 z "},"œ":{"ha":1363,"x_min":107,"x_max":1560,"o":"m 138 169 l 289 544 q 381 676 328 639 q 528 714 435 714 l 939 714 q 1043 668 1015 714 q 1039 544 1071 622 l 888 169 q 797 38 850 75 q 650 0 744 0 l 501 0 q 483 29 471 0 l 547 190 q 590 219 560 219 l 618 219 q 649 242 642 219 l 743 474 q 729 494 750 494 l 551 494 q 529 474 536 494 l 435 242 q 449 219 428 219 l 478 219 q 494 190 507 219 l 431 29 q 389 0 418 0 l 239 0 q 135 47 163 0 q 138 169 107 93 m 1086 461 q 1167 451 1135 454 q 1207 447 1200 447 q 1235 452 1228 447 q 1250 474 1243 457 l 1251 478 q 1256 502 1258 497 q 1235 507 1254 507 l 1046 507 q 1004 478 1015 507 l 907 238 q 925 208 896 208 l 1261 208 q 1275 185 1285 208 l 1210 24 q 1176 0 1200 0 l 753 0 q 635 58 669 0 q 633 200 600 117 l 761 515 q 869 668 804 621 q 1042 715 933 715 l 1400 715 q 1525 666 1490 715 q 1522 524 1560 617 l 1475 404 q 1385 268 1436 308 q 1258 228 1333 228 q 1158 237 1229 228 q 1006 260 1086 246 q 993 288 982 264 l 1054 440 q 1076 463 1064 463 q 1081 462 1079 463 q 1086 461 1083 461 z "},"ø":{"ha":889,"x_min":49,"x_max":1110,"o":"m 69 -3 l 132 51 q 138 169 110 99 l 289 544 q 381 676 328 639 q 528 714 435 714 l 903 714 l 1003 800 q 1025 813 1018 813 q 1039 807 1033 813 l 1096 758 q 1088 726 1110 746 l 1033 681 q 1039 544 1074 633 l 888 169 q 797 38 850 75 q 650 0 744 0 l 501 0 q 483 29 471 0 l 547 190 q 590 219 560 219 l 618 219 q 649 242 642 219 l 743 474 q 729 494 750 494 l 551 494 q 529 474 536 494 l 435 242 q 449 219 428 219 l 478 219 q 494 190 507 219 l 431 29 q 389 0 418 0 l 244 0 l 153 -78 q 131 -90 139 -90 q 117 -85 124 -90 l 63 -35 q 69 -3 49 -22 m 490 346 l 600 440 q 624 453 615 453 q 638 447 629 453 l 697 401 q 692 371 713 390 l 581 276 q 557 264 567 264 q 543 269 554 264 l 485 315 q 490 346 468 326 z "},"ú":{"ha":894,"x_min":114,"x_max":1124,"o":"m 147 193 l 346 683 q 390 714 360 714 l 596 714 q 614 683 626 714 l 431 229 q 443 208 422 208 q 490 213 454 208 q 568 224 526 217 q 590 219 583 224 q 590 197 597 215 l 532 56 q 489 21 521 26 q 265 -11 332 -11 q 149 49 183 -11 q 147 193 114 110 m 571 31 l 835 683 q 878 714 849 714 l 1076 714 q 1094 683 1107 714 l 831 31 q 788 0 819 0 l 589 0 q 571 31 560 0 m 1100 1000 q 1101 982 1124 1000 l 881 813 q 835 794 858 794 l 683 794 q 679 815 660 794 l 836 979 q 879 1000 856 1000 l 1100 1000 z "},"ü":{"ha":894,"x_min":114,"x_max":1117,"o":"m 147 193 l 346 683 q 390 714 360 714 l 596 714 q 614 683 626 714 l 431 229 q 443 208 422 208 q 490 213 454 208 q 568 224 526 217 q 590 219 583 224 q 590 197 597 215 l 532 56 q 489 21 521 26 q 265 -11 332 -11 q 149 49 183 -11 q 147 193 114 110 m 571 31 l 835 683 q 878 714 849 714 l 1076 714 q 1094 683 1107 714 l 831 31 q 788 0 819 0 l 589 0 q 571 31 560 0 m 828 818 l 892 976 q 925 1000 901 1000 l 1093 1000 q 1107 976 1117 1000 l 1043 818 q 1010 794 1033 794 l 842 794 q 828 818 818 794 m 496 818 l 560 976 q 593 1000 569 1000 l 761 1000 q 775 976 785 1000 l 711 818 q 678 794 701 794 l 510 794 q 496 818 486 794 z "},"Å":{"ha":1022,"x_min":-51,"x_max":1136,"o":"m -18 40 l 749 969 q 806 1000 774 1000 l 1025 1000 q 1057 969 1057 1000 l 1074 40 q 1031 0 1074 0 l 811 0 q 779 31 778 0 l 779 156 q 765 168 779 168 l 532 168 q 521 208 488 168 l 643 363 q 669 387 658 382 q 701 392 679 392 l 767 392 q 781 404 781 392 l 779 617 l 313 31 q 287 6 297 11 q 256 0 276 0 l -8 0 q -18 40 -51 0 m 842 1200 q 923 1284 871 1253 q 1028 1315 975 1315 q 1108 1284 1081 1315 q 1124 1200 1136 1253 q 1107 1186 1119 1186 l 1021 1186 q 1010 1199 1014 1186 q 986 1213 1006 1213 q 951 1199 969 1213 q 929 1186 939 1186 l 844 1186 q 842 1200 832 1186 m 817 1139 q 832 1153 819 1153 l 917 1153 q 931 1142 924 1153 q 953 1129 935 1129 q 985 1140 969 1129 q 1007 1153 1001 1153 l 1094 1153 q 1099 1139 1106 1153 q 1016 1059 1068 1090 q 911 1028 964 1028 q 833 1059 858 1028 q 817 1139 807 1090 z "},"á":{"ha":874,"x_min":92,"x_max":1100,"o":"m 444 263 q 417 258 424 263 q 403 232 411 253 q 422 203 390 203 q 466 206 432 203 q 535 214 500 210 l 540 214 q 550 193 557 214 l 489 42 q 453 14 479 19 q 326 -7 385 1 q 236 -15 267 -15 q 122 36 153 -15 q 125 171 92 88 l 167 275 q 269 421 207 375 q 431 467 331 467 l 714 467 q 729 478 724 467 l 735 489 q 713 508 746 508 l 375 508 q 361 532 351 508 l 425 690 q 458 714 435 714 l 883 714 q 1001 656 967 714 q 1003 514 1036 597 l 804 24 q 771 0 794 0 l 560 0 q 546 24 536 0 l 639 251 q 632 263 643 263 l 444 263 m 1076 1000 q 1078 982 1100 1000 l 857 813 q 811 794 835 794 l 660 794 q 656 815 636 794 l 813 979 q 856 1000 832 1000 l 1076 1000 z "},"à":{"ha":874,"x_min":92,"x_max":1036,"o":"m 444 263 q 417 258 424 263 q 403 232 411 253 q 422 203 390 203 q 466 206 432 203 q 535 214 500 210 l 540 214 q 550 193 557 214 l 489 42 q 453 14 479 19 q 326 -7 385 1 q 236 -15 267 -15 q 122 36 153 -15 q 125 171 92 88 l 167 275 q 269 421 207 375 q 431 467 331 467 l 714 467 q 729 478 724 467 l 735 489 q 713 508 746 508 l 375 508 q 361 532 351 508 l 425 690 q 458 714 435 714 l 883 714 q 1001 656 967 714 q 1003 514 1036 597 l 804 24 q 771 0 794 0 l 560 0 q 546 24 536 0 l 639 251 q 632 263 643 263 l 444 263 m 636 794 q 604 813 611 794 l 522 982 q 538 1000 515 1000 l 758 1000 q 785 979 781 1000 l 808 815 q 788 794 813 794 l 636 794 z "},"æ":{"ha":1347,"x_min":92,"x_max":1544,"o":"m 125 171 l 167 275 q 269 421 207 375 q 431 467 331 467 l 714 467 q 729 478 724 467 l 735 489 q 713 508 746 508 l 375 508 q 361 532 351 508 l 425 690 q 458 714 435 714 l 883 714 q 938 706 913 714 q 1026 715 975 715 l 1385 715 q 1510 666 1475 715 q 1507 524 1544 617 l 1460 404 q 1369 268 1421 308 q 1243 228 1318 228 q 1142 237 1214 228 q 990 260 1071 246 q 978 288 967 264 l 1039 440 q 1061 463 1049 463 q 1066 462 1064 463 q 1071 461 1068 461 q 1152 451 1119 454 q 1192 447 1185 447 q 1220 452 1213 447 q 1235 474 1228 457 l 1236 478 q 1241 502 1243 497 q 1219 507 1239 507 l 1031 507 q 989 478 1000 507 l 892 238 q 910 208 881 208 l 1246 208 q 1260 185 1269 208 l 1194 24 q 1161 0 1185 0 l 738 0 q 619 58 654 0 q 618 200 585 117 l 639 251 q 632 263 643 263 l 444 263 q 417 258 424 263 q 403 232 411 253 q 422 203 390 203 q 466 206 432 203 q 535 214 500 210 l 540 214 q 550 193 557 214 l 489 42 q 453 14 479 19 q 326 -7 385 1 q 236 -15 267 -15 q 122 36 153 -15 q 125 171 92 88 z "},"é":{"ha":908,"x_min":146,"x_max":1126,"o":"m 632 461 q 713 451 681 454 q 753 447 746 447 q 781 452 774 447 q 796 474 789 457 l 797 478 q 802 502 804 497 q 781 507 800 507 l 592 507 q 550 478 561 507 l 453 238 q 471 208 442 208 l 807 208 q 821 185 831 208 l 756 24 q 722 0 746 0 l 299 0 q 181 58 215 0 q 179 200 146 117 l 307 515 q 415 668 350 621 q 588 715 479 715 l 946 715 q 1071 666 1036 715 q 1068 524 1106 617 l 1021 404 q 931 268 982 308 q 804 228 879 228 q 703 237 775 228 q 551 260 632 246 q 539 288 528 264 l 600 440 q 622 463 610 463 q 627 462 625 463 q 632 461 629 461 m 1103 1000 q 1104 982 1126 1000 l 883 813 q 838 794 861 794 l 686 794 q 682 815 663 794 l 839 979 q 882 1000 858 1000 l 1103 1000 z "},"ê":{"ha":908,"x_min":146,"x_max":1111,"o":"m 632 461 q 713 451 681 454 q 753 447 746 447 q 781 452 774 447 q 796 474 789 457 l 797 478 q 802 502 804 497 q 781 507 800 507 l 592 507 q 550 478 561 507 l 453 238 q 471 208 442 208 l 807 208 q 821 185 831 208 l 756 24 q 722 0 746 0 l 299 0 q 181 58 215 0 q 179 200 146 117 l 307 515 q 415 668 350 621 q 588 715 479 715 l 946 715 q 1071 666 1036 715 q 1068 524 1106 617 l 1021 404 q 931 268 982 308 q 804 228 879 228 q 703 237 775 228 q 551 260 632 246 q 539 288 528 264 l 600 440 q 622 463 610 463 q 627 462 625 463 q 632 461 629 461 m 1092 942 q 1093 913 1111 933 l 1017 807 q 990 789 1003 789 q 979 792 988 789 l 788 851 l 544 792 q 532 789 533 789 q 521 807 521 789 l 528 913 q 554 942 528 935 l 828 1008 q 853 1013 843 1013 q 872 1008 863 1013 l 1092 942 z "},"ł":{"ha":560,"x_min":122,"x_max":769,"o":"m 489 382 q 493 383 490 383 q 493 378 494 383 l 438 240 q 450 219 429 219 l 622 219 q 640 189 654 219 l 576 31 q 535 0 565 0 l 276 0 q 158 58 193 0 q 154 203 122 117 l 160 217 q 169 229 165 226 l 489 382 m 175 285 q 157 279 165 279 q 146 293 147 279 l 125 410 q 149 443 124 431 l 276 503 l 493 1039 q 497 1049 494 1043 q 536 1069 510 1069 l 743 1069 q 756 1068 753 1069 q 764 1050 769 1067 q 761 1039 764 1047 l 610 664 l 626 672 q 643 678 636 678 q 653 664 651 678 l 674 547 q 651 514 678 526 l 175 285 z "},"½":{"ha":1053,"x_min":53,"x_max":1228,"o":"m 72 21 l 965 979 q 1008 1000 985 1000 l 1147 1000 q 1151 979 1171 1000 l 258 21 q 215 0 239 0 l 76 0 q 72 21 53 0 m 611 206 l 613 208 q 681 306 640 276 q 792 336 722 336 l 996 336 q 1007 344 1004 336 l 1032 406 q 1026 414 1036 414 l 747 414 q 738 432 731 414 l 782 542 q 807 560 789 560 l 1131 560 q 1206 522 1183 560 q 1207 432 1228 485 l 1167 332 q 1097 233 1139 263 q 986 204 1056 204 l 778 204 q 769 199 771 204 l 767 193 q 757 188 765 188 l 622 188 q 611 206 604 188 m 263 458 l 415 835 l 379 825 q 375 824 376 825 q 371 824 374 824 q 367 839 361 824 l 417 964 q 443 988 424 982 l 463 994 q 500 1000 481 1000 l 629 1000 q 640 982 647 1000 l 428 458 q 403 440 421 440 l 274 440 q 263 458 256 440 m 535 18 l 579 128 q 604 146 586 146 l 1072 146 q 1083 128 1090 146 l 1039 18 q 1014 0 1032 0 l 546 0 q 535 18 528 0 z "},"¼":{"ha":1074,"x_min":94,"x_max":1213,"o":"m 114 21 l 1007 979 q 1050 1000 1026 1000 l 1189 1000 q 1193 979 1213 1000 l 300 21 q 257 0 281 0 l 118 0 q 114 21 94 0 m 569 140 l 608 239 q 633 269 618 257 l 1017 547 q 1053 560 1035 560 l 1181 560 q 1192 542 1199 560 l 1081 268 q 1088 257 1076 257 l 1151 257 q 1161 239 1171 257 l 1122 140 q 1097 122 1115 122 l 1033 122 q 1017 111 1022 122 l 979 18 q 954 0 972 0 l 826 0 q 815 18 808 0 l 967 393 l 776 257 l 853 257 q 863 239 872 257 l 824 140 q 799 122 817 122 l 581 122 q 569 140 563 122 m 263 458 l 415 835 l 379 825 q 375 824 376 825 q 371 824 374 824 q 367 839 361 824 l 417 964 q 443 988 424 982 l 463 994 q 500 1000 481 1000 l 629 1000 q 640 982 647 1000 l 428 458 q 403 440 421 440 l 274 440 q 263 458 256 440 z "},"¾":{"ha":1306,"x_min":265,"x_max":1458,"o":"m 360 21 l 1253 979 q 1296 1000 1272 1000 l 1435 1000 q 1439 979 1458 1000 l 546 21 q 503 0 526 0 l 364 0 q 360 21 340 0 m 272 458 l 317 568 q 342 586 324 586 l 596 586 q 608 594 606 586 l 628 643 q 622 651 632 651 l 528 651 q 518 669 511 651 l 558 769 q 583 788 565 788 l 679 788 q 690 796 688 788 l 711 846 q 706 854 714 854 l 468 854 q 458 872 451 854 l 503 982 q 528 1000 510 1000 l 810 1000 q 885 963 863 1000 q 886 872 907 925 l 858 806 q 792 719 840 757 q 789 633 811 686 l 763 568 q 694 469 735 499 q 583 440 654 440 l 283 440 q 272 458 265 440 m 801 140 l 840 239 q 865 269 850 257 l 1249 547 q 1285 560 1267 560 l 1413 560 q 1424 542 1431 560 l 1313 268 q 1319 257 1308 257 l 1383 257 q 1393 239 1403 257 l 1354 140 q 1329 122 1347 122 l 1265 122 q 1249 111 1254 122 l 1211 18 q 1186 0 1204 0 l 1058 0 q 1047 18 1040 0 l 1199 393 l 1008 257 l 1085 257 q 1094 239 1104 257 l 1056 140 q 1031 122 1049 122 l 813 122 q 801 140 794 122 z "}}}
